<?xml version="1.0" encoding="UTF-8" standalone="no"?>
<!-- Created with Inkscape (http://www.inkscape.org/) -->

<svg
   width="202.14952mm"
   height="153.40576mm"
   viewBox="0 0 202.14952 153.40576"
   version="1.1"
   id="svg5"
   xml:space="preserve"
   inkscape:export-filename="logo.svg"
   inkscape:export-xdpi="96"
   inkscape:export-ydpi="96"
   inkscape:version="1.2.2 (732a01da63, 2022-12-09)"
   sodipodi:docname="dessin.svg"
   xmlns:inkscape="http://www.inkscape.org/namespaces/inkscape"
   xmlns:sodipodi="http://sodipodi.sourceforge.net/DTD/sodipodi-0.dtd"
   xmlns="http://www.w3.org/2000/svg"
   xmlns:svg="http://www.w3.org/2000/svg"><sodipodi:namedview
     id="namedview7"
     pagecolor="#ffffff"
     bordercolor="#000000"
     borderopacity="0.25"
     inkscape:showpageshadow="2"
     inkscape:pageopacity="0.0"
     inkscape:pagecheckerboard="0"
     inkscape:deskcolor="#d1d1d1"
     inkscape:document-units="mm"
     showgrid="false"
     inkscape:zoom="0.84096521"
     inkscape:rotation="-1"
     inkscape:cx="284.97567"
     inkscape:cy="332.62393"
     inkscape:window-width="958"
     inkscape:window-height="531"
     inkscape:window-x="952"
     inkscape:window-y="570"
     inkscape:window-maximized="0"
     inkscape:current-layer="g3577" /><defs
     id="defs2"><rect
       x="-84.648238"
       y="-56.184925"
       width="955.39855"
       height="726.68325"
       id="rect4072" /></defs><g
     inkscape:label="Calque 1"
     inkscape:groupmode="layer"
     id="layer1"
     transform="translate(-4.1538241,-10.149628)"><path
       style="fill:#000000;stroke-width:0.183471"
       d="m 12.204212,452.15365 -0.220164,-0.22016 v -1.52281 -1.52281 H 10.803432 9.6228164 l -0.4706206,-0.17893 -0.4706207,-0.17892 v -0.72342 -0.72342 l 0.1113649,-0.29021 0.1113648,-0.29021 h 1.5398712 1.539872 v -1.33934 -1.33934 l 0.220164,-0.22016 0.220165,-0.22017 h 0.78247 0.782467 l 0.189927,0.35488 0.189926,0.35488 v 1.17814 1.17814 l 1.369907,0.10361 1.36991,0.1036 0.189591,0.11718 0.189593,0.11717 v 0.7781 0.77809 l -0.220164,0.22017 -0.220165,0.22016 h -1.339336 -1.339336 v 1.3881 1.38809 l -0.189926,0.35488 -0.189927,0.35488 h -0.782467 -0.78247 z m 1.627967,-0.46785 0.01343,-0.32107 -0.02544,-1.33131 -0.02544,-1.33131 0.287489,-0.11032 0.287487,-0.11032 1.329895,-0.0261 1.329886,-0.0261 0.05694,-0.68802 0.05694,-0.68801 h -1.280365 -1.280364 l -0.290211,-0.11137 -0.290212,-0.11136 v -1.18506 -1.18499 L 13.8123,444.10558 13.622373,443.7507 H 13.078417 12.53446 l -0.0111,0.22933 -0.0111,0.22934 -0.03477,1.2843 -0.03477,1.28429 -1.651236,0.0917 -1.6512367,0.0917 v 0.64215 0.64215 l 1.5952247,0.0529 1.595226,0.0529 0.101302,0.31918 0.101301,0.31917 -0.08233,0.97935 -0.08233,0.97934 0.105839,0.52919 0.105844,0.5292 h 0.619214 0.619214 l 0.01343,-0.32108 z m -13.26918209,0.37078 -0.32107371,-0.0766 v -1.54255 -1.54256 l -0.41280906,-0.0944 -0.41280906,-0.0944 -1.28429488,-0.0467 -1.2842948,-0.0467 v -1.00909 -1.00909 l 1.6971039,-0.0528 1.6971039,-0.0528 v -1.33246 -1.33245 l 0.22016483,-0.22016 0.22016483,-0.22017 h 0.59234794 0.592348 l 0.2883114,0.28832 0.2883113,0.28831 v 1.27119 1.27119 H 3.915878 5.3881844 l 0.1911013,0.50263 0.191103,0.50264 -0.108899,0.58047 -0.1088972,0.58048 -0.2852217,0.10945 -0.2852199,0.10944 H 3.7128603 2.4435715 v 1.47353 1.47352 l -0.2293383,0.0701 -0.2293384,0.0701 -0.5504121,0.079 -0.55041208,0.079 z m 1.51363319,-2.06788 0.091735,-1.5595 1.5136332,-0.0533 1.5136332,-0.0533 v -0.43625 -0.43625 L 5.084267,447.15991 4.9729022,446.8697 H 3.5247661 2.0766301 v -1.36958 -1.36957 l -0.373871,-0.20009 -0.373873,-0.20009 -0.36000982,0.11426 -0.3600117,0.11426 v 1.44852 1.44852 l -1.69710388,0.0528 -1.6971039,0.0528 -0.056524,0.68099 -0.056524,0.68099 1.7077598,0.0529 1.70775994,0.0529 0.0531661,1.61601 0.0531661,1.61601 0.68071656,-0.0565 0.6807167,-0.0565 z m 19.2011239,1.31571 -0.303642,-0.33552 v -0.50108 -0.50108 l 0.912051,-0.96435 0.912049,-0.96436 -0.912049,-0.89834 -0.912051,-0.89834 v -0.60317 -0.60318 l 0.366941,-0.36694 0.366941,-0.36694 h 0.498775 0.498776 l 0.957847,0.94594 0.957845,0.94595 1.035019,-0.94595 1.035017,-0.94594 h 0.41915 0.419148 l 0.483419,0.38025 0.48342,0.38026 v 0.48546 0.48546 l -0.956638,0.96867 -0.956638,0.96867 0.864902,0.87811 0.864903,0.87811 v 0.73675 0.73676 l -0.220165,0.22016 -0.220164,0.22017 h -0.616436 -0.616436 l -1.004823,-0.95032 -1.004823,-0.95033 -0.962275,0.95033 -0.962272,0.95032 h -0.562076 -0.562073 z m 2.187609,-0.99464 1.025542,-0.96322 h 0.162304 0.162306 l 1.094276,0.96322 1.094276,0.96322 h 0.2508 0.250801 l 0.220165,-0.22016 0.220165,-0.22017 v -0.40944 -0.40945 l -0.917354,-0.86855 -0.917353,-0.86855 v -0.28536 -0.28536 l 1.027362,-1.03819 1.027361,-1.03819 -0.195934,-0.36611 -0.195934,-0.3661 -0.397573,-0.10397 -0.397574,-0.10397 -1.046722,0.9984 -1.046723,0.99841 h -0.174548 -0.17455 l -0.817951,-0.83974 -0.817951,-0.83973 -0.333377,-0.18239 -0.333378,-0.1824 -0.446373,0.29247 -0.446373,0.29248 v 0.36368 0.36367 l 1.009089,0.94777 1.009089,0.94777 v 0.20423 0.20422 l -1.009089,0.99656 -1.009089,0.99655 v 0.31822 0.31823 l 0.321074,0.18701 0.321073,0.187 0.228311,0.006 0.228311,0.006 1.025541,-0.96322 z m 7.998533,-1.58173 -0.243249,-0.15422 -0.09843,-0.73388 -0.09843,-0.73388 0.210537,-0.39338 0.210536,-0.3934 h 3.719626 3.719628 l 0.35614,0.26046 0.356141,0.26046 -0.03164,0.83487 -0.03165,0.83488 -0.116787,0.18896 -0.116784,0.18896 -3.79619,-0.003 -3.796189,-0.003 -0.243251,-0.15422 z m 7.673814,-1.01133 v -0.80422 l -0.412809,-0.11062 -0.412809,-0.11063 -3.34834,-0.003 -3.34834,-0.002 -0.02907,0.32107 -0.02907,0.32107 0.03125,0.36695 0.03125,0.36694 0.0838,0.22933 0.0838,0.22934 h 3.675173 3.675171 z m -75.772407,-7.75799 -0.824629,-0.28851 -0.775239,-0.53338 -0.775237,-0.53337 -0.487855,-0.63961 -0.487852,-0.63961 -0.453681,-1.23594 -0.453679,-1.23593 -0.09348,-1.46777 -0.09349,-1.46776 0.202559,-1.08141 0.202561,-1.08141 0.447182,-0.97678 0.447182,-0.97678 0.845099,-0.90348 0.845099,-0.90348 0.956574,-0.41717 0.956573,-0.41718 1.467765,-0.0764 1.467766,-0.0764 1.124761,0.35603 1.12476,0.35603 0.67317,0.51345 0.673169,0.51345 0.439236,0.75104 0.439236,0.75104 0.201172,0.90083 0.201174,0.90083 -0.144954,0.13077 -0.144957,0.13077 -1.606601,0.10625 -1.606602,0.10625 -0.250327,-0.58744 -0.250328,-0.58743 -0.436455,-0.39173 -0.436454,-0.39172 -0.403788,-0.12232 -0.40379,-0.12233 -0.705773,0.19005 -0.705775,0.19005 -0.486073,0.50747 -0.486072,0.50747 -0.281747,0.67448 -0.281745,0.67447 -0.116629,0.99234 -0.116628,0.99233 0.21302,0.99351 0.213021,0.99352 0.40496,0.599 0.404958,0.599 0.785783,0.38351 0.785783,0.3835 0.617502,-0.11584 0.617504,-0.11584 0.464006,-0.36499 0.464009,-0.36499 0.21098,-0.63928 0.21098,-0.63928 h 0.04381 0.04381 l 1.088653,0.18646 1.088653,0.18646 0.618729,0.10127 0.618729,0.10127 -0.09251,0.82075 -0.09251,0.82074 -0.530304,0.85775 -0.530305,0.85775 -0.729797,0.49674 -0.729797,0.49673 -0.892554,0.2891 -0.892555,0.2891 -1.492564,-0.009 -1.492565,-0.009 -0.824629,-0.28851 z m 5.044455,-0.58801 0.917353,-0.40836 0.684496,-0.66689 0.684497,-0.6669 0.297418,-0.89544 0.297417,-0.89544 -0.08539,-0.0854 -0.08539,-0.0854 -1.079991,-0.17687 -1.079991,-0.17686 -0.275206,0.003 -0.275206,0.003 -0.275206,0.59057 -0.275206,0.59058 -0.642148,0.43088 -0.642147,0.43089 -0.97083,-0.0779 -0.970829,-0.0779 -0.496936,-0.36887 -0.496936,-0.36888 -0.520765,-0.83735 -0.520763,-0.83735 -0.100785,-1.47039 -0.100782,-1.4704 0.219437,-0.88533 0.219434,-0.88533 0.460115,-0.70242 0.460114,-0.70242 0.767615,-0.34851 0.767616,-0.34851 0.642148,-0.003 0.642147,-0.003 0.598648,0.365 0.598651,0.365 0.306818,0.64341 0.306816,0.6434 h 1.316496 1.316494 l -0.04883,-0.61545 -0.04883,-0.61546 -0.367486,-0.71471 -0.367486,-0.71471 -0.521349,-0.4947 -0.521346,-0.49471 -0.866666,-0.38323 -0.866665,-0.38323 -1.175571,-0.10978 -1.175572,-0.10978 -1.30114,0.39521 -1.301139,0.39521 -0.904876,0.90488 -0.904873,0.90487 -0.477121,1.00855 -0.47712,1.00855 -0.209874,1.34997 -0.209875,1.34996 0.195104,1.31454 0.195107,1.31453 0.484036,1.06003 0.484034,1.06002 0.678427,0.70314 0.678427,0.70314 0.550412,0.29092 0.550412,0.29092 0.733883,0.24279 0.733882,0.2428 1.467766,-0.0578 1.467765,-0.0578 0.917354,-0.40836 z m 3.577678,0.58406 v -0.1265 l 2.428668,-7.30406 2.428669,-7.30405 h 2.158098 2.1581 v 0.0534 0.0534 l 2.385119,7.10519 2.385119,7.10519 v 0.27197 0.27197 h -1.990589 -1.990589 l -0.360905,-1.33016 -0.360906,-1.33016 h -2.268897 -2.268898 l -0.360905,1.33016 -0.360905,1.33016 h -1.990589 -1.99059 z m 3.943501,-1.47886 0.328547,-1.23842 0.179825,-0.22934 0.179825,-0.22934 h 2.340189 2.340189 l 0.175632,0.22934 0.175633,0.22934 0.325883,1.23842 0.325882,1.23843 h 1.620615 1.620613 l -2.266776,-6.74255 -2.266775,-6.74255 -0.127723,-0.32107 -0.127725,-0.32107 h -1.775455 -1.775457 l -2.266832,6.83428 -2.266834,6.83428 -0.0858,0.22934 -0.0858,0.22934 h 1.5519 1.5519 z m 1.465914,-4.61911 0.117923,-0.53689 0.608176,-1.98583 0.608177,-1.98583 h 0.22791 0.227907 l 0.707927,2.38511 0.707927,2.38512 0.0039,0.13761 0.0039,0.1376 h -1.665815 -1.665813 z m 2.663296,0.0685 v -0.10144 l -0.491382,-1.64153 -0.491383,-1.64152 h -0.121846 -0.121845 l -0.489918,1.60536 -0.489916,1.60537 0.0023,0.13761 0.0023,0.1376 h 1.100824 1.100824 v -0.10145 z m 7.239137,5.9262 -0.08817,-0.22977 0.04807,-7.15492 0.04806,-7.15492 3.4859435,-0.0573 3.4859432,-0.0573 0.9397754,0.20277 0.9397754,0.20278 0.841492,0.53366 0.841492,0.53366 0.500919,0.97206 0.5009191,0.97206 0.011192,1.37603 0.011192,1.37603 -0.3357018,0.87006 -0.3357019,0.87005 -0.8716399,0.78118 -0.8716417,0.78119 1.3446292,2.56859 1.34462915,2.56859 3.6695e-4,0.1376 3.6694e-4,0.1376 h -2.07589384 -2.075892 l -1.1807128,-2.43099 -1.180711,-2.43098 -0.7797504,-0.0564 -0.7797505,-0.0564 v 2.48741 2.4874 h -1.840464 -1.840466 l -0.08817,-0.22978 z m 3.259234,-2.56815 0.051194,-2.43098 1.1533316,-0.0548 1.1533335,-0.0548 1.1783442,2.48578 1.178346,2.48578 h 1.5670746 1.5670746 v -0.17996 -0.17995 l -1.1925595,-2.2663 -1.1925596,-2.26631 v -0.28142 -0.28142 l 0.715811,-0.4737 0.7158109,-0.4737 0.5107328,-1.0439 0.5107311,-1.0439 -0.01066,-1.1338 -0.01066,-1.1338 -0.3596576,-0.81306 -0.3596558,-0.81305 -0.6677342,-0.58627 -0.6677343,-0.58627 -0.6930312,-0.22097 -0.6930293,-0.22097 -3.6235462,-0.0808 -3.6235456,-0.0808 v 7.08022 7.08021 h 1.370704 1.3707053 l 0.051192,-2.43099 z m 0.038397,-5.15024 -0.093018,-0.24239 0.052907,-1.82165 0.052907,-1.82165 1.6406206,-0.0535 1.6406188,-0.0535 0.5238125,0.21697 0.5238143,0.21697 0.2665536,0.51546 0.2665536,0.51546 v 0.66037 0.66037 l -0.2614458,0.50558 -0.2614475,0.50558 -0.4810694,0.21919 -0.4810693,0.21919 h -1.6483613 -1.6483612 z m 3.901319,-0.56733 0.5147747,-0.44279 v -0.83641 -0.83641 l -0.4178361,-0.4179 -0.4178343,-0.41791 -1.5544757,-0.0647 -1.5544738,-0.0647 v 1.7618 1.7618 h 1.4575353 1.4575333 z m 6.47757227,1.0689 v -7.44659 l 3.80701693,0.0658 3.8070168,0.0658 0.9645569,0.43208 0.9645561,0.43207 0.572027,0.65151 0.572029,0.6515 0.282033,0.65549 0.282031,0.65549 -0.01044,1.46777 -0.01044,1.46776 -0.298705,0.69211 -0.298705,0.6921 -0.639511,0.70786 -0.639511,0.70786 -0.9616888,0.42352 -0.9616873,0.42352 -1.8805746,0.0779 -1.8805746,0.0779 v 2.27258 2.27257 H 2.8105294 0.97582248 v -7.4466 z m 3.30247253,4.78628 v -2.29339 h 1.4292183 1.4292184 l 1.0217849,-0.26614 1.021785,-0.26614 0.6470333,-0.38176 0.6470313,-0.38176 0.469389,-0.68226 0.469388,-0.68226 0.193725,-0.51649 0.193725,-0.51649 -0.004,-1.22648 -0.004,-1.22649 -0.334236,-0.73388 -0.334236,-0.73388 -0.749573,-0.67581 -0.7495727,-0.6758 -0.7010012,-0.22237 -0.7010011,-0.22237 -3.4400755,-0.0822 -3.4400755,-0.0822 v 7.0808 7.08081 h 1.4677655 1.4677656 v -2.29338 z m 0,-7.06363 v -2.20164 l 1.5136332,7.3e-4 1.5136332,7.3e-4 0.6008537,0.36634 0.6008518,0.36634 0.1788986,0.47054 0.1788968,0.47054 v 0.54758 0.54757 l -0.2783122,0.5382 -0.2783104,0.5382 -0.5381966,0.27831 -0.5381947,0.27831 H 5.7551552 4.2782785 v -2.20165 z m 3.5632595,1.29785 0.4674778,-0.43918 0.112541,-0.59989 0.1125427,-0.5999 -0.3296675,-0.55809 -0.3296693,-0.55808 -0.5413248,-0.18871 -0.5413266,-0.1887 H 5.7186665 4.6452198 v 1.85476 1.85476 l 1.3644202,-0.0689 1.3644202,-0.0689 z m 5.8775257,8.19632 -0.08817,-0.22977 0.04806,-7.15492 0.04806,-7.15492 4.907841,-0.0489 4.907841,-0.0489 v 1.65424 1.65423 H 20.51543 17.488163 v 1.28429 1.2843 h 2.660325 2.660325 v 1.5595 1.5595 h -2.660325 -2.660325 v 1.28429 1.2843 h 3.210738 3.210737 v 1.65124 1.65123 h -5.051202 -5.051203 z m 9.823637,-1.42145 v -1.2843 h -3.210737 -3.210737 v -1.65124 -1.65123 h 2.660325 2.660325 v -1.19256 -1.19256 h -2.660325 -2.660325 v -1.65124 -1.65123 h 3.027266 3.027267 v -1.2843 -1.28429 h -4.495032 -4.495032 v 7.06362 7.06362 h 4.678503 4.678502 z m 2.201649,-5.77933 v -7.43056 l 1.788839,10e-4 1.788839,10e-4 2.660325,4.07385 2.660325,4.07384 0.09174,-4.02941 0.09173,-4.0294 1.788839,-0.0525 1.788839,-0.0525 v 7.43721 7.43721 l -1.788839,-0.005 -1.788839,-0.005 -2.70569,-4.07765 -2.70569,-4.07755 -5.03e-4,4.08222 -5.03e-4,4.08222 H 27.579057 25.74435 Z m 3.302472,2.75206 v -4.31156 l 0.229338,0.0136 0.229339,0.0136 2.823566,4.29799 2.823568,4.29798 h 1.442126 1.442127 v -7.06362 -7.06362 h -1.37603 -1.37603 v 4.4033 4.40329 H 35.028517 34.77221 l -2.885388,-4.40329 -2.885389,-4.4033 h -1.445072 -1.44507 v 7.06362 7.06362 h 1.467766 1.467765 v -4.31156 z m 15.411538,-1.09482 v -5.77332 l -2.064045,-0.0519 -2.064045,-0.0519 0.0011,-1.5595 0.0011,-1.5595 6.014476,-0.0484 6.014474,-0.0484 -0.05279,1.69802 -0.05279,1.69801 -2.064045,-0.0615 -2.064046,-0.0615 v 5.79661 5.7966 h -1.834706 -1.834707 v -5.77332 z m 3.345726,-0.32708 0.04848,-5.73346 2.064045,-0.0519 2.064046,-0.0519 v -1.27829 -1.27828 h -5.595856 -5.595857 v 1.27808 1.27809 l 1.97231,0.0521 1.97231,0.0521 0.04848,5.73346 0.04848,5.73346 h 1.462538 1.462539 z m 6.561692,-1.33016 v -7.43056 h 4.953708 4.953709 v 1.65123 1.65124 h -3.119002 -3.119001 v 1.28429 1.2843 h 2.75206 2.75206 v 1.5595 1.5595 h -2.75206 -2.75206 v 1.28429 1.2843 h 3.302472 3.302473 v 1.65124 1.65123 h -5.13718 -5.137179 z m 9.907417,5.77933 v -1.2843 H 60.970723 57.66825 v -1.65124 -1.65123 h 2.752061 2.75206 v -1.19256 -1.19256 h -2.75206 -2.752061 v -1.65124 -1.65123 h 3.119002 3.119002 v -1.2843 -1.28429 h -4.586768 -4.586767 v 7.06362 7.06362 h 4.770238 4.770238 z m 2.385119,-5.77933 v -7.43056 h 3.727849 3.72785 l 0.920628,0.27339 0.92063,0.2734 0.73956,0.53573 0.739559,0.53574 0.437156,0.88797 0.437157,0.88797 v 1.5595 1.5595 l -0.529557,0.95561 -0.529557,0.9556 -0.685255,0.47488 -0.685256,0.47489 1.347638,2.51413 1.347636,2.51413 0.0048,0.22934 0.0048,0.22934 h -2.067194 -2.067193 l -1.234415,-2.47685 -1.234415,-2.47686 H 71.154212 70.32773 v 2.47686 2.47685 h -1.834707 -1.834707 v -7.43056 z m 3.302473,4.58677 v -2.47686 h 1.193423 1.193424 l 1.234415,2.47686 1.234414,2.47685 h 1.623325 1.623325 l -1.299103,-2.46144 -1.299103,-2.46144 v -0.28591 -0.28591 l 0.554031,-0.2865 0.554028,-0.2865 0.529307,-0.73069 0.52931,-0.73068 0.223482,-0.93158 0.223482,-0.93158 -0.110831,-0.80859 -0.110831,-0.8086 -0.353569,-0.68742 -0.353566,-0.68743 -0.521348,-0.49481 -0.521347,-0.49481 -0.733883,-0.32187 -0.733883,-0.32187 -3.807017,-0.0734 -3.807016,-0.0733 v 7.08216 7.08216 h 1.467765 1.467766 z m 0,-6.97189 v -2.10991 h 1.734339 1.734337 l 0.48107,0.21919 0.481069,0.21919 0.261448,0.50558 0.261445,0.50558 v 0.66882 0.66882 l -0.305528,0.51722 -0.305528,0.51721 -0.436987,0.19911 -0.436989,0.1991 h -1.734337 -1.734339 z m 4.073438,1.1837 0.559268,-0.55927 -0.100857,-0.75195 -0.100858,-0.75195 -0.385686,-0.38588 -0.385685,-0.38589 -1.64634,-0.0641 -1.646339,-0.0641 v 1.76122 1.76123 h 1.573614 1.573615 z M 7.5464236,422.74885 6.6864781,422.512 5.8528716,422.10846 5.0192634,421.70492 4.1059664,420.88378 3.1926677,420.06265 2.5564005,418.79083 1.9201333,417.519 l -0.2184751,-1.05239 -0.2184769,-1.05239 0.086369,-2.02305 0.086367,-2.02305 0.3873708,-0.99262 0.3873709,-0.99262 0.652763,-0.98313 0.6527612,-0.98313 1.1188135,-0.82363 1.1188153,-0.82362 1.2693236,-0.38555 1.2693255,-0.38554 1.9651309,0.0813 1.965132,0.0813 1.05534,0.41079 1.055338,0.41079 0.918989,0.72642 0.918988,0.72642 0.634852,0.95736 0.634851,0.95736 0.381421,1.10082 0.381421,1.10083 0.105178,1.46776 0.105178,1.46777 -0.208569,1.37603 -0.208568,1.37603 -0.629833,1.28993 -0.629832,1.28993 -0.865637,0.87805 -0.865639,0.87803 -0.933062,0.47411 -0.933062,0.47409 -0.917354,0.24542 -0.917353,0.24541 -1.559501,-0.0142 -1.5595008,-0.0142 -0.8599455,-0.23684 z m 5.4098044,-0.61116 1.063915,-0.382 0.862527,-0.61872 0.862527,-0.61872 0.689321,-0.90565 0.689323,-0.90565 0.374675,-0.99427 0.374675,-0.99427 0.182067,-1.45201 0.182067,-1.45201 -0.191242,-1.40661 -0.191245,-1.4066 -0.643696,-1.3133 -0.643696,-1.31329 -0.990582,-0.90533 -0.990582,-0.90534 -0.696924,-0.33071 -0.696925,-0.33072 -0.925266,-0.24641 -0.925267,-0.2464 H 10.057605 8.7733104 l -0.9173534,0.24504 -0.9173535,0.24505 -0.8121569,0.41518 -0.812155,0.41519 -0.9540715,0.90232 -0.9540696,0.90232 -0.554364,1.14146 -0.5543641,1.14147 -0.2021315,0.97225 -0.2021315,0.97225 v 1.26623 1.26624 l 0.2027498,0.97225 0.2027517,0.97225 0.5211742,1.10082 0.5211741,1.10083 0.8334028,0.84114 0.8334028,0.84115 0.9197386,0.50058 0.9197386,0.50059 1.1464808,0.25968 1.146479,0.25968 1.3760302,-0.062 1.37603,-0.062 z M 8.037193,419.10075 7.1176049,418.67252 6.5917228,417.98305 6.0658389,417.29359 5.814207,416.45747 5.5625733,415.62136 v -1.60101 -1.60101 l 0.2988334,-0.92528 0.2988334,-0.92528 0.5596737,-0.67898 0.5596737,-0.67899 0.7468614,-0.33921 0.7468615,-0.33922 h 1.1925595 1.1925591 l 0.733883,0.33978 0.733883,0.33977 0.494709,0.52768 0.494706,0.52768 0.387942,0.87732 0.387941,0.87731 0.106747,1.27327 0.106745,1.27326 -0.239939,1.13065 -0.239941,1.13065 -0.565984,0.84012 -0.565985,0.84012 -0.984171,0.51129 -0.984172,0.51128 -1.0340059,-0.002 -1.034006,-0.002 -0.9195881,-0.42822 z m 3.235089,-0.21814 0.802134,-0.28301 0.584767,-0.56678 0.584769,-0.56677 0.40831,-0.93906 0.408309,-0.93905 0.01149,-1.37603 0.01149,-1.37603 -0.236826,-0.82561 -0.236824,-0.82562 -0.491844,-0.71731 -0.491845,-0.71731 -0.724228,-0.37443 -0.724227,-0.37442 -1.033156,-0.0747 -1.0331569,-0.0747 -0.7368403,0.37591 -0.7368422,0.37591 -0.5710323,0.65037 -0.5710342,0.65037 -0.2830806,0.95324 -0.2830898,0.95324 v 1.21769 1.2177 l 0.2887297,0.97225 0.2887278,0.97226 0.6744933,0.71983 0.6744915,0.71983 0.7338827,0.2596 0.7338828,0.25961 0.573212,0.008 0.5732135,0.008 0.802134,-0.283 z m 15.251941,3.85241 -0.963096,-0.25934 -0.766413,-0.39099 -0.766412,-0.391 -0.946444,-0.89511 -0.946443,-0.8951 -0.47271,-0.87348 -0.472711,-0.87347 -0.325053,-1.10082 -0.325055,-1.10082 v -1.92645 -1.92644 l 0.325055,-1.10082 0.325053,-1.10083 0.472711,-0.87347 0.47271,-0.87347 0.977284,-0.92428 0.977286,-0.92427 1.239991,-0.58343 1.239992,-0.58343 1.949913,-0.0693 1.949914,-0.0693 1.077353,0.31094 1.077353,0.31094 0.875902,0.47404 0.875903,0.47403 0.805765,0.86143 0.805765,0.86143 0.453651,0.89584 0.453652,0.89585 0.295668,0.99652 0.295667,0.99653 v 1.94633 1.94633 l -0.274333,1.05323 -0.274331,1.05323 -0.384839,0.75435 -0.384839,0.75434 -0.84815,0.90674 -0.84815,0.90675 -0.792632,0.46451 -0.792632,0.46451 -1.110601,0.34566 -1.110601,0.34566 -1.589022,-0.0121 -1.589023,-0.0121 -0.963098,-0.25934 z m 4.394143,-0.2882 0.972252,-0.20474 0.997517,-0.48327 0.997517,-0.48327 0.865035,-0.84203 0.865035,-0.84202 0.478228,-0.94373 0.478227,-0.94374 0.273678,-1.05072 0.273678,-1.05072 -0.0027,-1.47508 -0.0027,-1.47509 -0.277356,-1.17666 -0.277359,-1.17667 -0.495431,-0.91027 -0.495431,-0.91027 -0.814933,-0.80342 -0.814933,-0.80342 -0.778092,-0.45599 -0.778092,-0.456 -1.064231,-0.27719 -1.064221,-0.2772 h -1.207201 -1.2072 l -1.093504,0.28475 -1.093504,0.28474 -0.763443,0.44732 -0.763444,0.44731 -0.851357,0.85136 -0.851357,0.85135 -0.518883,1.03105 -0.518883,1.03104 -0.23001,1.03371 -0.230009,1.03372 0.09274,1.99355 0.09274,1.99355 0.407316,1.03267 0.407316,1.03268 0.900785,1.11326 0.900784,1.11327 1.329795,0.6553 1.329796,0.65531 0.825618,0.16005 0.825618,0.16005 0.954191,0.0201 0.954191,0.0201 z m -3.787538,-3.2898 -0.723434,-0.36093 -0.427242,-0.40137 -0.427241,-0.40137 -0.500562,-1.01923 -0.500559,-1.01923 0.0089,-1.92645 0.0089,-1.92644 0.48497,-1.05383 0.484968,-1.05384 0.513289,-0.4757 0.513289,-0.4757 0.620606,-0.2593 0.620606,-0.25931 h 1.203962 1.203962 l 0.80737,0.39084 0.807372,0.39084 0.615836,0.84759 0.615838,0.84759 0.194218,0.76926 0.194221,0.76926 v 1.54692 1.54693 l -0.282729,0.80281 -0.282728,0.80282 -0.471896,0.68194 -0.471897,0.68194 -0.932635,0.46475 -0.932635,0.46475 -1.110667,-0.007 -1.110669,-0.007 -0.723435,-0.36092 z m 3.08127,-0.18965 0.706597,-0.1962 0.794886,-0.79488 0.794885,-0.79489 0.287356,-0.96763 0.287355,-0.96763 v -1.2177 -1.21769 l -0.283082,-0.95324 -0.283081,-0.95324 -0.586831,-0.66836 -0.586831,-0.66837 -0.735455,-0.33411 -0.735457,-0.33411 -0.877379,-0.004 -0.877379,-0.004 -0.682122,0.28494 -0.682122,0.28494 -0.504016,0.48276 -0.504016,0.48276 -0.367469,0.98215 -0.36747,0.98216 v 1.62128 1.62129 l 0.283009,0.80213 0.283009,0.80214 0.588477,0.61937 0.588476,0.61936 0.733883,0.34051 0.733883,0.34051 0.642147,0.003 0.642148,0.003 0.706599,-0.19621 z M -13.88532,413.923 v -8.72856 l 4.7243702,0.0604 4.7243703,0.0604 0.9701343,0.43758 0.9701325,0.43758 0.713191,0.81022 0.7131927,0.81023 0.29240096,0.85816 0.29240275,0.85815 0.10897058,0.92717 0.10897058,0.92717 -0.30296882,1.1859 -0.30297066,1.1859 -0.45866939,0.69481 -0.4586694,0.69482 -0.7198161,0.49774 -0.7198161,0.49775 -0.00695,0.11698 -0.00697,0.11699 1.5566021,2.91028 1.5566002,2.91028 0.002899,0.22934 0.002899,0.22934 H -2.480703 -4.8363841 l -1.3596004,-2.84339 -1.3595986,-2.84338 -1.0549565,-3.7e-4 -1.0549546,-4.6e-4 v 2.8438 2.8438 h -2.1099128 -2.109913 z m 3.811796,5.47196 0.05065,-2.79793 h 1.375715 1.3757146 l 1.4050149,2.8438 1.4050131,2.84379 h 1.8929956 1.89299553 v -0.0717 -0.0717 l -1.55950093,-2.9334 -1.5595009,-2.9334 v -0.19394 -0.19394 l 0.7419886,-0.41702 0.7419885,-0.41702 0.5346391,-0.80716 0.5346372,-0.80716 0.2129416,-0.64522 0.21294162,-0.64521 -0.081861,-1.49069 -0.0818591,-1.49068 -0.39445642,-0.73388 -0.3944565,-0.73389 -0.3252367,-0.37095 -0.3252367,-0.37096 -0.573777,-0.40526 -0.5737789,-0.40527 -1.0701369,-0.27873 -1.0701387,-0.27874 h -3.9060727 -3.9060729 v 8.3548 8.3548 l 1.697104,-0.0528 1.697104,-0.0528 z m 0.04109,-8.28175 v -2.58889 h 1.8406004 1.8406 l 0.6322363,0.26417 0.6322382,0.26416 0.3702732,0.60732 0.3702714,0.60732 7.339e-4,0.70616 7.339e-4,0.70615 -0.2999453,0.63209 -0.299947,0.63209 -0.5715388,0.30455 -0.5715405,0.30454 -1.97231,0.0746 -1.9723097,0.0746 v -2.58888 z m 4.3295528,1.72776 0.4551871,-0.29825 0.2922028,-0.61276 0.2922028,-0.61276 -0.1280351,-0.68248 -0.128035,-0.68249 -0.4492317,-0.41634 -0.4492335,-0.41633 -0.5707369,-0.11415 -0.5707388,-0.11415 h -1.3530964 -1.3530963 v 2.22861 2.2286 l 1.7537119,-0.10462 1.753712,-0.10463 z m 45.5744762,1.09574 v -8.71486 h 5.687591 5.687592 v 1.83471 1.8347 h -3.577679 -3.577678 v 1.83471 1.83471 h 3.210737 3.210737 v 1.8347 1.83471 h -3.210737 -3.210737 v 3.21074 3.21074 h -2.109913 -2.109913 z m 3.89442,5.18304 0.0502,-3.16486 3.164869,-0.0502 3.16487,-0.0502 v -1.46343 -1.46343 h -3.216561 -3.216558 l 0.05169,-2.15578 0.05169,-2.15578 3.531811,-0.0498 3.531811,-0.0498 v -1.4638 -1.46381 h -5.216551 -5.216551 l -0.103661,0.32661 -0.103661,0.3266 0.02166,7.88371 0.02166,7.88371 0.08047,0.1376 0.08047,0.1376 h 1.636076 1.636076 z m -26.539947,-12.53498 -0.288312,-0.28831 v -0.34334 -0.34334 l 0.483609,-1.3047 0.483608,-1.30471 -0.201456,-0.44215 -0.201458,-0.44215 -0.968235,-0.49064 -0.968236,-0.49065 -1.018323,0.0144 -1.018323,0.0144 -0.910049,0.30604 -0.910051,0.30603 -1.469215,0.69799 -1.4692172,0.69799 -1.7326496,1.13772 -1.7326476,1.13772 -1.0179615,-0.12103 -1.0179615,-0.12103 -3.2107371,-0.36064 -3.2107371,-0.36064 -0.2293384,-0.0839 -0.2293384,-0.0839 9.174e-4,-0.23509 9.173e-4,-0.2351 0.9622378,-0.68492 0.9622396,-0.68491 0.78512426,-0.55856 0.78512246,-0.55855 0.3014974,-0.63224 0.30149555,-0.63225 -0.21600739,-0.47409 -0.21600738,-0.47408 -0.97722729,-0.44739 -0.97722551,-0.44739 -0.8246897,-0.11304 -0.8246898,-0.11303 -3.9306706,0.96303 -3.9305387,0.96304 -4.095172,-1.85983 -4.095172,-1.85982 h -0.170522 -0.170521 v -0.35376 -0.35376 l 1.001616,-0.37476 1.001616,-0.37475 0.512017,-0.12314 0.512017,-0.12314 0.642148,-0.32138 0.642147,-0.32139 0.299373,-0.34059 0.299373,-0.3406 0.124294,-0.40807 0.124296,-0.40806 -0.309939,-0.65315 -0.309939,-0.65315 -0.78171,-0.45811 -0.781712,-0.45811 -1.25846,-0.26134 -1.25846,-0.26133 -2.819279,-0.37512 -2.81928,-0.37512 h -0.169076 -0.169077 l -2.148824,-1.99217 -2.148823,-1.99216 -0.963221,-0.90685 -0.963221,-0.90685 v -0.41351 -0.41351 l 0.871485,0.0559 0.871486,0.0559 0.09173,0.64215 0.09174,0.64214 5.226529,0.0917 5.22653,0.0917 0.05854,0.36695 0.05854,0.36694 0.186359,0.48262 0.186358,0.48262 0.690087,0.31119 0.690085,0.31118 0.668314,-0.12537 0.668312,-0.12538 0.967674,-0.99457 0.967674,-0.99457 0.06116,-0.17841 0.06116,-0.1784 h 1.525581 1.525583 l 0.431438,0.72846 0.431439,0.72846 2.4696091,2.60034 2.4696091,2.60035 0.9245988,0.43055 0.9245987,0.43055 0.9652209,0.002 0.965221,0.002 0.79495468,-0.37367 0.7949565,-0.37368 1.08362012,-1.0925 1.0836183,-1.09251 0.3725115,-0.002 0.3725116,-0.002 1.4835367,0.62568 1.4835348,0.62568 1.7216321,0.54939 1.7216303,0.54938 2.1099128,0.46406 2.109913,0.46406 1.794011,0.21889 1.794012,0.21889 3.618374,-0.10046 3.618374,-0.10047 1.742972,-0.30122 1.742971,-0.30121 1.853858,-0.43709 1.853857,-0.43708 2.044147,-0.75219 2.044146,-0.75219 1.564146,-0.7294 1.564146,-0.72941 2.003383,-1.18918 2.003382,-1.18919 1.458268,-1.09884 1.458267,-1.09884 1.377021,-1.28598 1.377019,-1.28599 h 0.28651 0.286508 l 2.255619,3.24636 2.25562,3.24635 0.734927,0.80145 0.734925,0.80145 0.732841,0.0961 0.732838,0.0961 0.642148,-0.43459 0.642147,-0.43458 0.25836,-0.74129 0.25836,-0.74129 -1.429428,-5.58247 -1.429427,-5.58246 -0.433395,-1.51328 -0.433394,-1.51328 -1.39171,-2.98175 -1.391708,-2.9817 -1.580689,-3.27015 -1.580689,-3.27014 3.232105,-3.15133 3.232106,-3.15133 0.120905,-0.59628 0.120905,-0.59628 -0.118557,-0.53979 -0.118557,-0.53978 -0.571274,-0.79038 -0.571275,-0.79038 -1.465096,-1.70125 -1.465096,-1.70124 -0.382373,-0.0762 -0.382371,-0.0762 -0.793992,-0.0876 -0.793989,-0.0876 -0.344628,-0.31188 -0.344628,-0.31189 -0.127062,-0.84731 -0.127063,-0.84731 -0.250771,-0.60018 -0.250773,-0.60018 -3.278482,-3.43922 -3.278484,-3.43922 -0.892657,-0.74275 -0.892654,-0.74274 -0.550412,-0.38003 -0.550412,-0.38003 -1.440737,-0.62943 -1.440738,-0.62944 -1.831922,-4.10548 -1.831922,-4.10548 0.0903,-0.47205 0.09029,-0.47205 0.30076,-1.0091 0.300762,-1.00909 0.101875,-1.74298 0.101878,-1.74299 -0.289928,-1.37602 -0.289929,-1.37604 -0.764932,-1.55951 -0.764931,-1.55951 -1.577799,-1.57502 -1.577798,-1.57502 -1.155743,-0.6452 -1.15574,-0.64521 -0.0052,-6.09825 -0.0052,-6.09824 0.06007,-0.0499 0.06007,-0.05 1.519891,-1.1191 1.519891,-1.1191 0.652602,-0.12243 0.652603,-0.12243 4.247083,0.16116 4.247082,0.16116 0.05754,0.30195 0.05754,0.30196 -1.23584,0.98235 -1.235839,0.98234 -0.700373,0.66644 -0.700374,0.66643 v 0.74139 0.7414 l 0.461196,0.5481 0.461197,0.54811 0.855781,0.29159 0.855783,0.2916 0.747067,-0.005 0.747067,-0.004 0.825618,-0.18439 0.825618,-0.18439 2.886168,-0.84465 2.886168,-0.84465 2.984894,1.23642 2.984894,1.23641 1.513633,0.64451 1.513634,0.6445 v 0.33094 0.33094 l -0.59628,0.18906 -0.59628,0.18905 -1.527061,0.37266 -1.527064,0.37266 -0.536545,0.38206 -0.536544,0.38205 -0.112063,0.4465 -0.112064,0.4465 0.116293,0.46334 0.116291,0.46335 0.708152,0.70816 0.708155,0.70816 1.025741,0.38378 1.025739,0.38378 1.242839,0.19869 1.242838,0.19869 2.968826,0.23699 2.968827,0.237 3.403001,3.28384 3.403002,3.28384 0.0038,0.25603 0.0038,0.25602 -2.470734,-0.12815 -2.470734,-0.12815 -0.418929,0.21613 -0.41893,0.21613 -0.412809,0.37599 -0.412809,0.37599 v 0.43401 0.43401 l 0.356133,0.69808 0.356132,0.69808 0.628467,0.55181 0.628468,0.5518 1.582996,0.95618 1.582995,0.95618 2.156775,0.97464 2.156775,0.97463 0.407415,0.12513 0.407417,0.12513 1.500249,2.42034 1.500249,2.42033 0.890262,1.55181 0.890264,1.5518 v 0.23704 0.23703 h -0.374126 -0.374124 l -2.226981,-0.83305 -2.226981,-0.83306 -0.512937,0.11266 -0.512936,0.11266 -0.463636,0.551 -0.463636,0.551 0.0018,0.58221 0.0018,0.5822 0.444425,0.95455 0.444425,0.95455 1.526092,1.58992 1.526093,1.58993 2.023988,1.79609 2.02399,1.79608 0.872235,4.55777 0.872236,4.55777 -0.0066,0.22934 -0.0066,0.22934 h -0.268822 -0.268823 l -0.694398,-0.58844 -0.6944,-0.58844 -1.120264,-1.05267 -1.120263,-1.05267 -0.466443,-0.11707 -0.466443,-0.11707 -0.425168,0.0611 -0.425166,0.0611 -0.436645,0.64215 -0.436646,0.64214 0.08002,1.37603 0.08001,1.37603 0.435961,1.00909 0.435959,1.00909 0.822243,1.46777 0.822244,1.46776 0.972699,1.54978 0.972697,1.54978 v 0.49797 0.49798 l -0.441823,2.90595 -0.441823,2.90596 -0.222754,1.51363 -0.222753,1.51364 -0.298645,-5.5e-4 -0.298644,-5.6e-4 -1.189886,-2.12999 -1.189887,-2.13001 -0.440225,-0.34628 -0.440225,-0.34628 h -0.585422 -0.585424 l -0.390166,0.41532 -0.390166,0.41531 -0.292144,0.6992 -0.292144,0.6992 -0.10249,1.133 -0.102492,1.133 0.402041,3.02727 0.402039,3.02727 0.07595,1.19256 0.07595,1.19256 -1.984298,3.94434 -1.984296,3.94434 -0.283684,0.0546 -0.283685,0.0546 -0.20177,-0.51303 -0.20177,-0.51304 -0.459242,-1.90006 -0.45924,-1.90006 -0.465465,-0.61026 -0.465465,-0.61026 -0.357894,-0.11359 -0.357895,-0.11359 -0.541869,0.28021 -0.541868,0.28021 -0.383715,0.62087 -0.383712,0.62086 -0.279096,0.79104 -0.279095,0.79104 -0.740022,4.69295 -0.740022,4.69294 -3.247517,3.15526 -3.247518,3.15525 -0.326831,0.01 -0.326833,0.01 -0.115335,-0.30056 -0.115335,-0.30055 0.228806,-1.94696 0.228807,-1.94696 -0.19758,-0.51157 -0.197579,-0.51158 -0.487337,-0.45164 -0.487337,-0.45165 -0.569487,7.3e-4 -0.56949,7.4e-4 -0.570487,0.34787 -0.570488,0.34787 -0.622072,0.73237 -0.622072,0.73236 -1.926442,3.8136 -1.926442,3.8136 -3.394208,1.52389 -3.394208,1.52389 -0.504544,0.003 -0.504545,0.003 v -0.51843 -0.51843 l 0.470601,-1.34696 0.4706,-1.34696 0.0102,-0.7395 0.0102,-0.73951 -0.514228,-0.44232 -0.514228,-0.44232 -0.967848,0.0803 -0.967848,0.0803 -1.388169,1.06326 -1.38817,1.06325 -1.467649,1.26824 -1.467646,1.26824 -4.555529,1.55281 -4.555523,1.55282 h -0.289135 -0.289135 z m 5.588073,-1.76537 3.949944,-1.34052 1.954924,-1.62706 1.954925,-1.62706 0.943459,-0.7089 0.94346,-0.7089 0.735191,-0.19797 0.735192,-0.19797 0.578236,0.12701 0.578237,0.127 0.387222,0.25372 0.387223,0.25371 0.211747,0.46474 0.211749,0.46474 v 0.46611 0.46612 l -0.583375,1.72451 -0.583372,1.72452 0.113423,0.11343 0.113425,0.11342 2.075318,-0.9039 2.075318,-0.90389 1.390178,-0.6258 1.390177,-0.62581 1.989953,-3.9224 1.989952,-3.9224 0.857779,-0.88065 0.85778,-0.88065 0.669933,-0.18498 0.66993,-0.18497 0.630354,0.17405 0.630356,0.17404 0.470523,0.55919 0.470522,0.55918 0.116832,0.4655 0.116832,0.46549 -0.115773,1.30921 -0.115774,1.3092 -0.116852,0.68802 -0.116853,0.68801 h 0.175387 0.175389 l 3.152037,-3.07313 3.152038,-3.07314 0.365993,-2.45774 0.365994,-2.45774 -7.34e-4,-0.11085 -7.33e-4,-0.11085 -0.339986,0.55042 -0.339986,0.55041 -0.396055,0.35208 -0.396052,0.35209 -0.96038,0.0771 -0.960377,0.0771 -0.642052,-0.43639 -0.642052,-0.4364 -2.385214,-3.42752 -2.385215,-3.42752 -0.218678,-0.21481 -0.218679,-0.21482 -1.340822,1.19222 -1.340823,1.19222 -1.353127,1.03856 -1.353128,1.03855 -1.603556,0.99192 -1.603555,0.99192 -1.813555,0.90825 -1.813555,0.90825 -1.834707,0.68855 -1.834706,0.68855 -1.812988,0.52109 -1.812988,0.52109 -2.309215,0.38997 -2.309215,0.38996 -2.115801,0.13812 -2.115801,0.13812 -2.000887,-0.0617 -2.000885,-0.0617 -1.576793,-0.19304 -1.576792,-0.19304 -2.109913,-0.46439 -2.1099126,-0.46439 -1.6512362,-0.5562 -1.6512363,-0.55621 -1.5354423,-0.63082 -1.5354424,-0.63082 -1.1612282,1.11507 -1.16122642,1.11506 -0.88100792,0.39897 -0.88100976,0.39897 -1.1008242,0.007 -1.1008241,0.007 -1.0090888,-0.49563 -1.0090888,-0.49563 -2.3925698,-2.53079 -2.3925682,-2.53079 -0.442388,-0.64214 -0.442386,-0.64215 -0.192311,-0.1348 -0.19231,-0.13479 -1.009089,-7.3e-4 -1.009089,-7.4e-4 -0.818229,0.94138 -0.818228,0.94138 -0.557803,0.34016 -0.5578,0.34015 -0.693908,7.4e-4 -0.693908,7.3e-4 -0.612277,-0.25582 -0.612275,-0.25583 -0.299185,-0.42714 -0.299184,-0.42715 v -0.41785 -0.41786 l -0.59628,-0.0129 -0.59628,-0.0129 -4.448946,-0.033 -4.448947,-0.0329 -1.84e-4,0.0873 -1.83e-4,0.0873 0.715431,0.64662 0.715433,0.64661 1.532083,1.39681 1.532085,1.39681 1.834707,0.21987 1.834707,0.21987 2.135499,0.35652 2.1355,0.35652 0.616561,0.25765 0.61656,0.25765 0.50821,0.39981 0.508211,0.39981 0.27154,0.5251 0.27154,0.5251 v 0.4769 0.4769 l -0.270759,0.52359 -0.270756,0.52358 -0.600729,0.36474 -0.600727,0.36473 -1.628967,0.49169 -1.628968,0.4917 0.161203,0.14391 0.161201,0.14392 3.883102,1.74834 3.8831,1.74835 3.6201796,-0.89627 3.6201795,-0.89627 h 0.8572026 0.8572044 l 0.9425862,0.27992 0.94258619,0.27992 0.65021463,0.61323 0.65021464,0.61323 v 0.62553 0.62553 l -0.31543016,0.45363 -0.31543199,0.45363 -0.37258311,0.31385 -0.37258494,0.31384 -1.14669186,0.78552 -1.1466918,0.78553 v 0.12586 0.12585 l 1.0549565,0.11384 1.05495646,0.11385 2.92358714,0.35492 2.9235872,0.35493 1.721799,-1.11539 1.7217991,-1.11539 1.6864167,-0.79886 1.686419,-0.79887 1.091437,-0.28428 1.09144,-0.28428 h 0.478565 0.478565 l 0.986859,0.29306 0.986862,0.29307 0.605941,0.60594 0.605967,0.60584 v 0.519 0.519 l -0.485649,1.27092 -0.485647,1.27093 0.314785,0.23017 0.314784,0.23018 0.491936,-0.15669 0.491939,-0.1567 z m 36.40877,-20.51321 0.288717,-1.74297 0.28191,-0.86033 0.28191,-0.86033 0.676976,-0.7534 0.676975,-0.75341 0.684462,-0.1068 0.684463,-0.1068 0.459869,0.30132 0.459869,0.30132 0.380733,0.7463 0.380733,0.74629 0.351585,1.61091 0.351583,1.6109 0.115291,0.30044 0.115291,0.30044 h 0.132789 0.132789 l 1.888856,-3.92807 1.888857,-3.92808 -0.407645,-2.81447 -0.407642,-2.81447 -0.09925,-1.76044 -0.09924,-1.76043 0.228524,-0.99163 0.228524,-0.99162 0.452099,-0.6713 0.452099,-0.67129 0.524932,-0.21743 0.524932,-0.21743 0.552327,0.12131 0.552326,0.12131 0.620566,0.68689 0.620564,0.68689 0.903272,1.6928 0.903272,1.69281 0.125855,-0.60319 0.125854,-0.6032 0.57942,-3.88798 0.579421,-3.88798 -1.190395,-1.89634 -1.190394,-1.89634 -0.9425,-1.76395 -0.9425,-1.76394 -0.279488,-1.34044 -0.279489,-1.34043 0.121139,-0.74351 0.121138,-0.74351 0.349165,-0.57469 0.349165,-0.5747 0.520582,-0.21563 0.520583,-0.21563 0.532751,0.12907 0.532751,0.12906 0.550412,0.37741 0.550413,0.37741 1.238671,1.18567 1.238669,1.18567 0.11299,-0.11299 0.112993,-0.11299 -0.780965,-4.0913 -0.780963,-4.0913 -0.11202,-0.19779 -0.112022,-0.19779 -1.558275,-1.36172 -1.558277,-1.36171 -1.835931,-1.8436 -1.835933,-1.8436 -0.504544,-1.00283 -0.504544,-1.00282 v -0.78623 -0.78623 l 0.278312,-0.53819 0.27831,-0.5382 0.538197,-0.27831 0.538194,-0.27831 h 0.526655 0.526654 l 1.978286,0.74548 1.978284,0.74549 0.09499,-0.095 0.09499,-0.095 -0.591741,-1.0633 -0.59174,-1.06331 -1.574305,-2.54804 -1.574307,-2.54804 -0.837581,-0.35823 -0.837578,-0.35823 -2.254297,-1.07708 -2.254298,-1.07709 -1.555158,-1.01371 -1.55516,-1.01371 -0.547973,-0.86407 -0.547972,-0.86406 v -0.74888 -0.74888 l 0.286342,-0.40881 0.286345,-0.40881 0.580022,-0.29994 0.580023,-0.29995 2.252635,0.12043 2.252636,0.12043 v -0.17725 -0.17726 l -0.260484,-0.14672 -0.260484,-0.14672 -1.069679,-0.99461 -1.069678,-0.99462 -1.834707,-1.79846 -1.834707,-1.79846 -3.302472,-0.28629 -3.302473,-0.28629 -1.522674,-0.35944 -1.522675,-0.35943 -0.893033,-0.58464 -0.893032,-0.58463 -0.382221,-0.68007 -0.382221,-0.68008 v -0.63829 -0.6383 l 0.383142,-0.48709 0.38314,-0.48709 0.498272,-0.25766 0.498269,-0.25767 1.687179,-0.3961 1.687178,-0.39611 v -0.13682 -0.13683 l -0.871486,-0.39731 -0.871486,-0.39731 -3.296271,-1.35285 -3.296271,-1.35285 -0.464878,0.13944 -0.464878,0.13943 -2.898063,0.84548 -2.898063,0.84548 h -1.331608 -1.331606 l -0.974382,-0.48556 -0.97438,-0.48556 -0.341909,-0.75288 -0.341908,-0.75287 -0.004,-0.33922 -0.004,-0.33921 0.281994,-0.59427 0.281995,-0.59426 1.590544,-1.25014 1.590544,-1.25013 -0.358905,-0.13032 -0.358906,-0.13032 -3.788693,-0.13125 -3.788692,-0.13126 -0.614605,0.31595 -0.614603,0.31594 -1.340556,1.00662 -1.340554,1.00661 0.102127,0.26614 0.102129,0.26615 v 5.45006 5.45007 l 1.238427,0.70566 1.238427,0.70565 1.475622,1.5024 1.475624,1.5024 0.667062,1.36286 0.667063,1.36285 0.33417,1.0091 0.334168,1.00909 -0.008,2.66033 -0.008,2.66034 -0.401788,1.19257 -0.40179,1.19256 1.78586,4.07588 1.785859,4.07588 0.642148,0.21503 0.642147,0.21503 1.038813,0.51969 1.038811,0.51969 1.071102,0.89807 1.0711,0.89807 2.869016,2.91445 2.869014,2.91446 0.571667,0.66706 0.571665,0.66706 0.254074,0.61723 0.254074,0.61724 0.125628,0.76341 0.125628,0.76341 0.330819,0.29939 0.33082,0.29939 0.710771,0.0958 0.710771,0.0958 0.400535,0.0803 0.400533,0.0803 1.680259,1.88016 1.68026,1.88016 0.531942,0.91736 0.531942,0.91735 0.0011,0.82562 0.0011,0.82562 -0.390494,0.64057 -0.390495,0.64057 -2.835868,2.75364 -2.83587,2.75363 2.6965,5.68759 2.6965,5.68759 0.347471,0.87928 0.347472,0.87927 1.565282,6.09261 1.565282,6.09262 0.116597,0.82424 0.1166,0.82425 0.05152,-0.1821 0.05152,-0.1821 0.288719,-1.74297 z m -2.049599,-34.49465 -0.403202,-0.16238 -0.284813,-0.55077 -0.284812,-0.55076 v -0.37971 -0.37972 l 1.36115,-1.41823 1.361149,-1.41824 -1.269413,-1.31061 -1.269416,-1.31061 v -0.55974 -0.55973 l 0.412809,-0.4751 0.412809,-0.4751 0.684557,-0.10899 0.684557,-0.10899 1.27402,1.35207 1.274021,1.35206 1.370209,-1.32862 1.370208,-1.32862 h 0.584079 0.584081 l 0.536298,0.5363 0.536299,0.5363 v 0.56204 0.56204 l -1.238427,1.29706 -1.238427,1.29706 v 0.15411 0.15411 l 1.238427,1.3143 1.238427,1.3143 v 0.50442 0.50442 l -0.229338,0.28343 -0.229339,0.28343 -0.453633,0.30205 -0.453631,0.30205 h -0.437409 -0.437407 l -1.36113,-1.31981 -1.361129,-1.31982 -1.050304,1.01809 -1.050302,1.01809 -0.453633,0.30172 -0.453631,0.30173 -0.280251,-0.0116 -0.28025,-0.0116 -0.403203,-0.16238 z m 2.435708,-1.66351 1.260126,-1.26986 0.280127,-0.003 0.280126,-0.003 1.293458,1.37875 1.293459,1.37876 h 0.193042 0.193043 l 0.622142,-0.41926 0.622143,-0.41926 0.06175,-0.32067 0.06176,-0.32067 -1.390649,-1.42903 -1.390648,-1.42902 v -0.26662 -0.26663 l 1.376031,-1.36684 1.37603,-1.36685 v -0.30936 -0.30935 l -0.56449,-0.47499 -0.564488,-0.47499 H 64.39213 64.172275 l -1.366845,1.37604 -1.366846,1.37603 h -0.193363 -0.193364 l -1.187259,-1.2057 -1.187259,-1.20569 -0.319417,-0.1759 -0.319417,-0.17591 -0.54941,0.28411 -0.549412,0.28411 -0.113194,0.45101 -0.113195,0.451 1.302466,1.42623 1.302468,1.42624 5.5e-4,0.26203 5.51e-4,0.26203 -1.366835,1.40455 -1.366835,1.40456 0.105096,0.40188 0.105096,0.40189 0.438302,0.34477 0.438302,0.34477 0.338139,-0.0884 0.33814,-0.0884 1.260128,-1.26985 z m -7.444891,-14.38802 v -2.84379 h -2.660325 -2.660325 v -1.5595 -1.5595 h 2.655421 2.655419 l 0.05077,-2.7062 0.05077,-2.70619 h 1.559501 1.559501 l 0.05077,2.70619 0.05077,2.7062 h 2.747154 2.747157 v 1.5595 1.5595 h -2.752061 -2.75206 v 2.84379 2.8438 h -1.651236 -1.651237 z m 2.935532,-0.36694 v -2.84379 h 2.75206 2.75206 v -1.19256 -1.19256 h -2.75206 -2.75206 v -2.75206 -2.75207 h -1.19256 -1.19256 l -0.0025,2.33926 -0.0025,2.33925 -0.110629,0.41281 -0.110628,0.41281 h -2.638927 -2.638926 v 1.18765 1.18766 l 2.706192,0.0508 2.706193,0.0508 0.05065,2.79793 0.05065,2.79793 h 1.187782 1.18778 v -2.8438 z m -85.211735,50.32188 -0.285609,-0.40776 v -0.32612 -0.32612 h -0.495912 -0.495912 l 0.716618,0.73389 0.716619,0.73388 h 0.0649 0.0649 z m 46.132477,6.62693 -1.37603,-0.15471 -1.835017,-0.36464 -1.835016,-0.36465 -1.604504,-0.46497 -1.6045062,-0.46497 -1.7435257,-0.66735 -1.7435256,-0.66735 v -0.26335 -0.26334 l 1.2117909,-1.4257 1.2117927,-1.4257 8.8190329,-0.12144 8.819032,-0.12144 0.653923,-0.32106 0.653922,-0.32105 0.415229,-0.62341 0.415231,-0.62341 v -5.18984 -5.18984 l -0.17608,-0.46313 -0.176081,-0.46312 -0.768246,-0.50841 -0.768247,-0.5084 -1.915273,-0.0709 -1.915272,-0.0709 0.126099,-0.39141 0.126098,-0.39141 0.297547,-1.05099 0.297545,-1.05099 6.19715,-6.19514 6.197149,-6.19514 0.290474,0.18323 0.290473,0.18323 2.795227,4.95298 2.795228,4.95299 3.224282,5.77933 3.224283,5.77932 0.27057,0.55042 0.27057,0.55041 0.391798,0.82562 0.391798,0.82561 -5.51e-4,0.18778 -5.5e-4,0.18777 -1.421898,1.39025 -1.421898,1.39024 -1.100824,0.82726 -1.100824,0.82725 -1.690661,1.10912 -1.69066,1.10912 -2.070489,0.99961 -2.070489,0.9996 -1.298026,0.48934 -1.298025,0.48934 -1.270564,0.36823 -1.270564,0.36823 -1.572161,0.35492 -1.572158,0.35493 -2.152519,0.28217 -2.152437,0.28217 -2.696798,-0.0238 -2.696795,-0.0238 z m 8.310208,-0.43896 2.345162,-0.27432 2.029575,-0.45815 2.029575,-0.45815 1.947352,-0.65163 1.947353,-0.65162 2.391645,-1.15434 2.391643,-1.15434 2.220416,-1.48922 2.220413,-1.48921 1.870495,-1.67889 1.870493,-1.67888 -0.303376,-0.46301 -0.303376,-0.46301 -0.1451,-0.50593 -0.145099,-0.50594 -6.092956,-10.89183 -6.092955,-10.89184 -0.245014,-0.25799 -0.245014,-0.258 -6.019321,6.10806 -6.019322,6.10806 -0.295143,1.07595 -0.295144,1.07596 1.487703,0.004 1.487703,0.004 0.733883,0.3387 0.733883,0.33871 0.458677,0.4974 0.458676,0.49739 0.05349,5.58342 0.05349,5.58342 -0.3067,0.64633 -0.306703,0.64632 -0.847612,0.49829 -0.847611,0.49829 -8.739964,0.0526 -8.7399659,0.0526 -1.1461983,1.28968 -1.1461983,1.28968 0.1622156,0.15768 0.1622175,0.15769 1.3760302,0.5408 1.3760302,0.5408 1.6512362,0.47144 1.6512358,0.47144 1.926443,0.3804 1.926442,0.3804 1.559501,0.15619 1.559501,0.15618 1.927567,0.0244 1.927567,0.0244 2.345161,-0.27433 z m -27.6669112,-0.80126 -0.7344277,-0.33365 -2.3389908,-2.43991 -2.3389927,-2.43992 -0.2128792,-0.71053 -0.2128792,-0.71052 -0.2066797,-0.17153 -0.2066816,-0.17153 -1.1855239,-0.0556 -1.185523,-0.0556 -0.04882,-0.36694 -0.04883,-0.36695 2.6646032,-3.27343 2.6646036,-3.27344 0.8383914,-1.71192 0.8383932,-1.71192 0.276116,-0.10595 0.2761161,-0.10596 h 3.60086735 3.60086555 l 4.6861773,-4.65216 4.6861773,-4.65217 0.904169,-0.30154 0.904169,-0.30155 h 0.380987 0.380986 l 7.292099,-7.29381 7.2921,-7.29381 v -0.55015 -0.55014 l 0.649359,-0.91334 0.64936,-0.91334 0.286167,-0.98438 0.286166,-0.98438 -0.115168,-0.768 -0.115168,-0.76799 -0.35561,-0.58476 -0.355611,-0.58475 -0.785821,-0.57921 -0.785822,-0.57921 -0.951027,-0.4433 -0.951028,-0.44329 -2.492266,-0.16714 -2.492264,-0.16713 -0.501328,-0.24028 -0.501326,-0.24028 v -0.63968 -0.63967 l 1.021737,-0.49572 1.021737,-0.49572 1.588163,-0.46023 1.588162,-0.46024 1.842309,-0.18905 1.842308,-0.18906 1.721276,0.17849 1.721276,0.17849 1.574454,0.52907 1.574452,0.52908 1.037079,0.62091 1.037079,0.62092 3.287107,3.1933 3.287108,3.19329 0.438042,0.75133 0.438044,0.75132 0.314766,1.13868 0.314768,1.13868 0.540304,0.65548 0.540307,0.65549 0.757868,0.38663 0.757868,0.38664 h 0.695267 0.695268 l 1.244748,1.39688 1.244749,1.39688 0.403372,0.52928 0.403371,0.52929 v 0.39807 0.39807 l -3.628632,3.59981 -3.628632,3.59981 -0.50302,0.12625 -0.50302,0.12625 -0.541789,-0.22441 -0.541788,-0.22442 -0.876548,-1.0212 -0.876548,-1.02121 -0.412809,-0.55378 -0.412809,-0.55378 0.0065,-0.56063 0.0065,-0.56064 0.262203,-0.45867 0.262204,-0.45868 0.0065,-0.78886 0.0065,-0.78886 -0.258825,-0.49544 -0.258828,-0.49543 -0.520923,-0.48213 -0.520925,-0.48212 -0.393515,-0.20202 -0.393517,-0.20202 -0.998598,-0.11736 -0.998598,-0.11737 -0.869989,0.38484 -0.869986,0.38483 -0.716545,0.56752 -0.716545,0.56751 -0.383135,-0.1216 -0.383134,-0.1216 -7.096048,7.19884 -7.096049,7.19885 -0.108983,0.75289 -0.108985,0.75289 -0.221631,0.54159 -0.221633,0.54159 -0.844069,0.92617 -0.84407,0.92618 -4.430696,4.49503 -4.4306965,4.49504 -4.5772416,4.751 -4.57724151,4.751 -0.73388279,0.33628 -0.7338828,0.33628 h -0.275206 -0.275206 l -0.7344277,-0.33365 z m 5.039828,-3.46531 3.2200795,-3.2566 6.7868247,-6.93692 6.786825,-6.93692 0.350038,-0.6524 0.350039,-0.6524 0.0845,-0.87943 0.0845,-0.87942 2.592725,-2.57737 2.592727,-2.57737 4.580643,-4.59476 4.580643,-4.59476 h 0.510245 0.510243 l 0.871912,-0.61595 0.871909,-0.61595 0.623657,-0.20967 0.623659,-0.20967 h 0.895868 0.895869 l 0.672246,0.28088 0.672247,0.28088 0.580336,0.44265 0.580336,0.44264 0.323698,0.68215 0.323699,0.68214 -0.01668,0.83053 -0.01668,0.83052 -0.311089,0.86511 -0.311089,0.86511 0.93033,1.16439 0.930328,1.16439 0.521448,0.47765 0.521449,0.47764 0.297118,0.10368 0.297118,0.10368 0.5285,-0.3378 0.528501,-0.33781 3.372787,-3.3065 3.372788,-3.3065 -0.352293,-0.55641 -0.352293,-0.55641 -1.182014,-1.35962 -1.182015,-1.35962 -0.90703,-0.10742 -0.90703,-0.10742 -0.982181,-0.65214 -0.982182,-0.65213 -0.352121,-0.77465 -0.352119,-0.77464 -0.324231,-1.10083 -0.324233,-1.10082 -1.841492,-1.92644 -1.841506,-1.92645 -1.834707,-1.72877 -1.834707,-1.72878 -1.100824,-0.6117 -1.100824,-0.6117 -1.467766,-0.49417 -1.467765,-0.49417 -3.027267,-0.007 -3.027266,-0.007 -1.530228,0.40826 -1.530229,0.40825 -1.221832,0.59842 -1.221832,0.59842 v 0.27273 0.27274 l 0.489683,0.2347 0.489685,0.2347 2.354111,0.16249 2.354112,0.16248 0.801832,0.29296 0.801831,0.29295 1.143631,0.81607 1.143634,0.81608 0.416495,0.96818 0.416496,0.96817 -0.103895,1.10576 -0.103898,1.10576 -0.270537,0.64215 -0.270538,0.64214 -0.565628,0.77817 -0.565627,0.77816 v 0.60127 0.60128 l -7.39257,7.38129 -7.392572,7.38129 h -0.687448 -0.68745 l -0.772441,0.37901 -0.772441,0.37901 -4.4224508,4.48296 -4.4224528,4.48296 h -3.5007107 -3.5007126 l -0.424753,0.16215 -0.424753,0.16214 -0.7878305,1.6267 -0.7878305,1.62669 -2.5537891,3.119 -2.553789,3.119 -0.0067,0.22934 -0.0067,0.22934 h 1.170095 1.1700937 l 0.1847495,0.22934 0.1847495,0.22934 0.1285157,0.6009 0.1285157,0.60091 2.2975943,2.4589 2.2975943,2.45891 0.5764741,0.28435 0.576476,0.28435 0.6343957,0.004 0.6343958,0.004 3.2200795,-3.25661 z m 52.0461392,-2.01817 -2.109225,-3.07314 -1.554559,-2.29338 -1.554558,-2.29339 -3.532541,-6.42147 -3.532543,-6.42147 -2.723765,-4.79871 -2.723768,-4.79871 v -0.16488 -0.16488 l 0.59628,-0.56438 0.59628,-0.56439 0.400748,-0.20549 0.400747,-0.20548 h 0.629466 0.629466 l 0.462801,0.36404 0.462801,0.36404 0.11345,0.45201 0.113447,0.45201 -0.372805,0.94581 -0.372805,0.94581 0.12087,0.64431 0.120872,0.6443 1.058707,1.40501 1.058709,1.40501 0.930038,0.86994 0.930041,0.86995 0.475684,0.18085 0.475685,0.18085 0.676071,-10e-4 0.676071,-0.001 0.525517,-0.27407 0.525515,-0.27408 h 0.17094 0.170939 l 1.568152,3.25661 1.568151,3.2566 1.155449,2.48352 1.155449,2.48353 0.464456,1.7363 0.464456,1.7363 1.396227,5.21868 1.396225,5.21868 -0.09193,0.23957 -0.09193,0.23958 h -0.360027 -0.360024 l -2.109225,-3.07314 z m 1.159751,-2.63781 -1.306634,-4.83863 -0.513667,-1.92644 -0.513666,-1.92644 -1.317417,-2.75206 -1.317417,-2.75206 -1.306187,-2.71323 -1.306186,-2.71322 -0.288249,0.13538 -0.288251,0.13539 -1.19256,0.0668 -1.192559,0.0669 -0.860597,-0.57222 -0.860597,-0.57222 -1.204672,-1.41182 -1.204672,-1.41182 -0.457453,-0.90751 -0.457453,-0.90751 v -0.60241 -0.60242 l 0.295107,-0.73754 0.295109,-0.73755 -0.116763,-0.46522 -0.11676,-0.46521 -0.485425,-0.18456 -0.485427,-0.18456 -0.48566,0.10667 -0.485661,0.10667 -0.683044,0.56302 -0.683044,0.56303 0.256921,0.39284 0.256919,0.39284 1.83763,3.21074 1.837632,3.21074 3.203934,5.77932 3.203935,5.77933 0.978266,1.83471 0.978268,1.8347 3.583392,5.21132 3.583393,5.21132 0.06308,-0.18923 0.06307,-0.18922 z m -72.440101,3.26306 -0.20435,-0.24622 0.837988,-2.82691 0.83799,-2.82691 1.093265,-3.56272 1.093263,-3.56271 11.953648,-23.88134 11.953648,-23.88133 -0.5197581,-1.54433 -0.519756,-1.54432 -0.016641,-1.83472 -0.016641,-1.83472 0.2455204,-1.00908 0.2455205,-1.0091 0.7284592,-1.53039 0.728457,-1.53039 1.147015,-1.14702 1.147015,-1.14702 1.341141,-0.67095 1.34114,-0.67094 h 0.617498 0.617496 v -0.98663 -0.98663 l -0.275206,-0.22841 -0.275206,-0.2284 0.01134,-4.05978 0.01134,-4.05978 0.133095,-1.32727 0.133095,-1.32727 0.360106,-0.27227 0.360107,-0.27227 2.14555,-0.006 2.145549,-0.006 0.514776,0.44234 0.514775,0.44235 0.06324,2.63081 0.06324,2.6308 -0.128422,2.79794 -0.128422,2.79795 h -0.255888 -0.255891 v 0.98494 0.98493 l 0.760637,0.10202 0.760638,0.10203 1.211298,0.61015 1.211299,0.61015 1.12786,1.1241 1.127861,1.12409 0.890691,1.79476 0.890692,1.79475 -5.51e-4,2.76877 -5.5e-4,2.76877 -0.492764,1.17172 -0.492764,1.17172 1.57448,3.41505 1.574479,3.41506 0.177796,0.227 0.177798,0.22701 -0.107176,0.27929 -0.107177,0.2793 -1.243511,-0.11214 -1.243513,-0.11213 -1.834707,0.2232 -1.834707,0.22319 -0.363275,0.0248 -0.363278,0.0248 -1.030874,-1.83471 -1.030874,-1.83471 -0.165349,0.0447 -0.165351,0.0447 -1.100825,0.40548 -1.100824,0.40548 -1.926442,0.002 -1.926442,0.002 -0.713523,-0.31617 -0.713522,-0.31618 -0.25182,0.20899 -0.251821,0.20899 -1.581576,3.04891 -1.581576,3.04891 -1.055553,2.01818 -1.055555,2.01818 -6.1394223,11.83386 -6.1394229,11.83386 -2.9972176,5.82066 -2.9972176,5.82067 -4.0163816,5.0041 -4.016379,5.00411 -0.38513,0.41281 -0.385131,0.41281 h -0.129024 -0.129024 l -0.20435,-0.24623 z m 4.717676,-5.6707 4.2804204,-5.36652 5.7761161,-11.19171 5.776118,-11.19171 3.8632305,-7.43056 3.86323,-7.43057 0.960528,-1.8347 0.960526,-1.83471 1.227458,-2.33789 1.227457,-2.33789 0.34027,-0.1821 0.340271,-0.18211 0.888642,0.40108 0.888644,0.40109 1.467765,0.009 1.467766,0.009 1.616296,-0.52977 1.616296,-0.52977 0.310146,0.42902 0.310146,0.42901 0.733883,1.38505 0.733883,1.38505 0.642147,-0.0303 0.642148,-0.0303 2.430986,-0.13562 2.430987,-0.13561 v -0.14514 -0.14514 l -1.593555,-3.41914 -1.593555,-3.41914 0.331248,-0.85659 0.331245,-0.8566 0.250353,-1.00909 0.250355,-1.0091 -9.17e-4,-1.65124 -9.18e-4,-1.65125 -0.436655,-1.23719 -0.436652,-1.23721 -0.509853,-0.87272 -0.509852,-0.87272 -1.010817,-1.06211 -1.010817,-1.06212 -1.31228,-0.64856 -1.312279,-0.64857 -0.762884,-0.10233 -0.762883,-0.10232 v -1.35188 -1.35188 h 0.254693 0.254692 l 0.07562,-4.63266 0.07562,-4.63266 -0.136755,-0.63724 -0.136757,-0.63724 -0.320357,-0.23425 -0.320358,-0.23426 h -1.87105 -1.871049 l -0.380069,0.32108 -0.380069,0.32107 -0.126191,5.08664 -0.126191,5.08664 0.302464,0.11607 0.302463,0.11607 v 1.35641 1.3564 h -0.620902 -0.620903 l -1.46949,0.73551 -1.46949,0.73551 -1.074478,1.15491 -1.074476,1.15491 -0.580245,1.18274 -0.5802439,1.18273 -0.2912414,1.12731 -0.2912414,1.12731 v 1.68943 1.68943 l 0.5498177,1.64111 0.549818,1.6411 -11.9931714,23.98015 -11.9929986,23.98013 -1.858444,6.11549 -1.858445,6.11549 v 0.16838 0.16838 h 0.04718 0.04718 z m 30.178046,-55.00175 -0.948745,-0.37537 -0.766456,-0.74383 -0.766454,-0.74382 -0.458152,-1.00074 -0.458151,-1.00074 -0.02707,-1.32117 -0.02707,-1.32116 0.239315,-0.82563 0.239314,-0.82561 0.639678,-0.88107 0.639678,-0.88107 0.839791,-0.53259 0.839791,-0.53258 1.023867,-0.21255 1.023866,-0.21256 1.002768,0.11786 1.00277,0.11786 0.84012,0.37043 0.84012,0.37043 0.769088,0.75285 0.769089,0.75284 0.420629,0.93549 0.420627,0.93548 0.0015,1.65125 0.0015,1.65124 -0.435908,0.82562 -0.43591,0.82563 -0.512501,0.65151 -0.512503,0.65152 -0.976716,0.53328 -0.976715,0.53327 -1.651237,0.0546 -1.651236,0.0547 -0.948747,-0.37537 z m 4.818148,-0.5953 0.93387,-0.47555 0.606245,-0.69048 0.606248,-0.69048 0.383647,-0.83494 0.383648,-0.83495 -0.01035,-1.37604 -0.01035,-1.37604 -0.437906,-0.90961 -0.437906,-0.90961 -0.714255,-0.71426 -0.714257,-0.71426 -0.824245,-0.36461 -0.824246,-0.36461 -1.41267,-0.006 -1.412671,-0.006 -0.921094,0.46676 -0.921096,0.46676 -0.697046,0.77155 -0.697044,0.77155 -0.367359,0.83047 -0.36736,0.83049 0.07601,1.5899 0.07601,1.58991 0.494195,0.84329 0.494197,0.84328 0.738044,0.63175 0.738046,0.63174 0.868616,0.30076 0.868616,0.30076 1.284295,-0.0628 1.284295,-0.0628 0.933869,-0.47555 z m -4.048626,-1.55099 -0.913108,-0.32417 -0.407827,-0.60972 -0.40783,-0.60973 -0.123714,-0.825 -0.123717,-0.82499 0.202574,-1.0087 0.202572,-1.00869 0.372913,-0.5237 0.372912,-0.52371 0.815325,-0.31137 0.815327,-0.31139 1.198556,0.0763 1.198557,0.0763 0.495184,0.36972 0.495183,0.36971 0.372613,0.49907 0.372611,0.49907 0.07278,1.28807 0.07278,1.28806 -0.31543,0.82595 -0.31543,0.82595 -0.70268,0.46501 -0.70268,0.46502 -1.067183,0.0785 -1.067183,0.0785 z m 3.206925,-0.51055 0.45911,-0.23473 0.294661,-0.33986 0.294659,-0.33986 0.209452,-0.62366 0.20945,-0.62366 -0.004,-0.75238 -0.004,-0.75237 -0.349123,-0.76899 -0.349123,-0.76899 -0.783876,-0.3999 -0.783877,-0.39991 -1.071179,0.0971 -1.071179,0.0971 -0.449562,0.29457 -0.449564,0.29456 -0.313524,0.4785 -0.313523,0.4785 -0.11822,0.92152 -0.118219,0.92152 0.131123,0.71706 0.131123,0.71705 0.426664,0.45417 0.426665,0.45417 0.834623,0.26134 0.834621,0.26135 0.733883,-0.10477 0.733883,-0.10476 0.459109,-0.23473 z m -49.308756,32.34279 0.04644,-28.67045 h 3.577678 3.577679 v 2.29338 2.29339 l -1.467766,0.0917 -1.467765,0.0917 -0.229339,0.14843 -0.229338,0.14843 0.0028,0.40198 0.0028,0.40198 0.173485,0.27521 0.173484,0.2752 1.520809,0.0917 1.52081,0.0917 v 2.01818 2.01818 l -1.507833,0.0917 -1.507832,0.0917 -0.325129,0.32588 -0.325128,0.32588 0.279602,0.49974 0.279602,0.49974 1.55336,0.0917 1.553358,0.0917 v 2.10991 2.10991 l -1.612604,0.0531 -1.612605,0.0531 -0.19511,0.42822 -0.19511,0.42822 0.208801,0.39015 0.208802,0.39015 h 1.438845 1.438845 l 0.212566,0.25612 0.212563,0.25613 -0.0525,1.89965 -0.0525,1.89966 -1.612586,0.0917 -1.612586,0.0917 -0.173442,0.2752 -0.173445,0.27521 -0.0028,0.30797 -0.0028,0.30797 0.288312,0.28831 0.288311,0.28831 h 1.443419 1.443417 l 0.114409,0.77975 0.114408,0.77975 -0.0573,1.37603 -0.0573,1.37603 -1.612586,0.0917 -1.612587,0.0917 -0.173442,0.27521 -0.173444,0.2752 -0.0028,0.29264 -0.0028,0.29264 0.33552,0.30364 0.33552,0.30364 h 1.403956 1.403957 l 0.103151,0.41281 0.103152,0.41281 -0.05379,1.74297 -0.05379,1.74297 -1.550356,0.0539 -1.550359,0.0539 -0.238481,0.19792 -0.238482,0.19792 v 0.41375 0.41374 l 0.302378,0.25181 0.30238,0.2518 1.486459,0.0917 1.486461,0.0917 0.0525,1.89966 0.0525,1.89965 -0.215792,0.26002 -0.215795,0.26001 -1.457354,-0.0359 -1.457355,-0.0359 -0.165379,0.2613 -0.165377,0.26131 -0.0028,0.39034 -0.0028,0.39035 0.238483,0.19792 0.238481,0.19792 1.550358,0.0539 1.550357,0.0539 0.09173,1.46777 0.09174,1.46777 2.247516,0.16241 2.247515,0.16241 v 0.38043 0.38044 l -0.997093,3.58525 -0.997095,3.58524 -0.348551,1.28429 -0.34855,1.2843 -4.617726,0.049 -4.617726,0.049 0.04644,-28.67045 z m 8.960332,27.74679 0.137666,-0.45868 1.125846,-4.12809 1.125846,-4.12809 0.0942,-0.32107 0.0942,-0.32108 h -1.950867 -1.950868 l -0.35488,-0.18992 -0.35488,-0.18993 v -1.34994 -1.34995 l -0.290212,-0.11136 -0.290211,-0.11137 h -1.324331 -1.32433 l -0.220165,-0.22016 -0.220165,-0.22017 v -0.77852 -0.77852 l 0.407765,-0.28561 0.407764,-0.28561 h 1.335208 1.335206 v -1.74297 -1.74297 h -1.37603 -1.37603 l -0.366942,-0.36694 -0.366941,-0.36695 v -0.62904 -0.62904 l 0.288311,-0.28831 0.288312,-0.28831 h 1.45466 1.45466 v -1.83471 -1.83471 h -1.37603 -1.37603 l -0.366942,-0.36694 -0.366941,-0.36694 v -0.58183 -0.58184 l 0.303642,-0.33552 0.303642,-0.33552 h 1.43933 1.439329 v -1.8347 -1.83471 h -1.37603 -1.37603 l -0.366942,-0.36694 -0.366941,-0.36694 v -0.50959 -0.50959 l 0.285609,-0.40776 0.28561,-0.40777 h 1.464247 1.464247 l -0.05275,-1.6971 -0.05275,-1.69711 -1.009089,-0.0476 -1.009089,-0.0476 -0.399979,-0.0903 -0.399981,-0.0903 -0.288034,-0.28804 -0.288036,-0.28804 0.0028,-0.58317 0.0028,-0.58317 0.134792,-0.20188 0.134794,-0.20187 0.400748,-0.21094 0.400748,-0.21093 h 1.204621 1.204621 v -1.74297 -1.74298 h -1.341435 -1.341435 l -0.401537,-0.37409 -0.401537,-0.37408 v -0.54327 -0.54326 l 0.366942,-0.36694 0.366941,-0.36695 h 1.37603 1.376031 v -1.73525 -1.73525 l -1.402893,-0.0536 -1.40289,-0.0536 -0.363978,-0.48858 -0.363979,-0.48857 0.115908,-0.46182 0.11591,-0.46182 0.288036,-0.28803 0.288036,-0.28804 h 1.337369 1.337369 l 0.115697,-0.96322 0.115697,-0.96322 0.0017,-0.96322 0.0017,-0.96322 h -3.302472 -3.302473 v 28.25786 28.25787 l 4.25051,-0.0493 4.250511,-0.0493 0.137664,-0.45867 z m -6.437036,-1.83471 -0.366941,-0.36694 v -0.71142 -0.71142 l 0.246825,-0.20484 0.246825,-0.20485 0.555514,-0.1111 0.555514,-0.1111 0.481956,0.63187 0.481955,0.63188 v 0.45879 0.45879 l -0.33552,0.30364 -0.33552,0.30364 h -0.581833 -0.581833 z m 1.546396,-0.28831 0.288311,-0.28831 v -0.0962 -0.0962 l -0.319672,-0.54116 -0.31967,-0.54116 -0.551816,0.0542 -0.551814,0.0542 -0.05962,0.52077 -0.05962,0.52077 0.317393,0.35071 0.317395,0.35072 h 0.3254 0.3254 z m 33.0082819,2.75432 -0.1141243,-0.2974 1.8139854,-1.86405 1.813986,-1.86406 3.209647,-3.2566 3.209648,-3.25661 h 2.688475 2.688475 l 0.0655,0.22934 0.0655,0.22934 -0.05416,5.09131 -0.05417,5.09131 H 22.99524 21.547014 l -0.102067,-0.77975 -0.102066,-0.77975 0.05472,-1.19256 0.05472,-1.19256 -0.141559,-0.29816 -0.141559,-0.29815 -0.360881,-0.0944 -0.360883,-0.0944 -0.37881,0.26533 -0.37881,0.26533 v 2.09951 2.09951 h -2.018178 -2.018178 v -2.10568 -2.10569 l -0.446373,-0.29247 -0.446373,-0.29248 -0.379245,0.20297 -0.379245,0.20297 -0.02488,0.0394 -0.02488,0.0394 -0.112727,2.20165 -0.112726,2.20165 -2.251095,0.0515 -2.2510977,0.0515 z m 4.3755321,-2.29463 0.05731,-2.03027 -1.880574,1.93211 -1.8805747,1.9321 v 0.0982 0.0982 h 1.8232617 1.82326 z m 5.836639,0.0121 v -2.01818 l 0.366942,-0.36694 0.366941,-0.36694 h 0.433934 0.433934 l 0.483419,0.38026 0.48342,0.38026 v 2.00486 2.00486 h 1.100824 1.100824 v -4.95371 -4.95371 h -2.348935 -2.348936 l -2.518633,2.52272 -2.51863,2.52273 0.554874,0.1142 0.554876,0.1142 0.276338,0.22933 0.276336,0.22934 v 2.08745 2.08745 h 1.651236 1.651236 z m -5.412385,-2.38512 0.11339,-0.18347 h -0.09173 -0.09173 l -0.113391,0.18347 -0.11339,0.18347 h 0.09173 0.09173 z m -46.789012,-1.70732 -2.380831,-1.70733 -0.48244,-0.72366 -0.482438,-0.72366 -1.765229,-3.06061 -1.765228,-3.06062 v -0.28772 -0.28773 h 0.426542 0.426542 l 1.348564,0.45868 1.348565,0.45867 h 0.944973 0.944971 l 0.396101,-0.42163 0.3961,-0.42163 0.113024,-0.56512 0.113025,-0.56512 -0.382248,-0.86414 -0.382249,-0.86413 -1.700263,-1.69498 -1.700263,-1.69498 -1.408017,-1.27024 -1.408016,-1.27024 -0.840325,-4.57677 -0.840324,-4.57677 0.189346,-0.18934 0.189345,-0.18935 0.262971,0.17935 0.262972,0.17935 1.525254,1.05977 1.525256,1.05976 0.675066,0.10955 0.675067,0.10955 0.579274,-0.57928 0.579276,-0.57927 -0.07024,-1.24309 -0.07024,-1.2431 -0.842772,-1.74321 -0.842773,-1.74322 -1.158065,-1.91529 -1.158067,-1.9153 0.22415,-3.76115 0.224149,-3.76114 0.108868,-0.96323 0.108866,-0.96322 0.295814,10e-4 0.295813,0.001 1.430041,1.55313 1.430042,1.55313 0.73222,0.21938 0.732223,0.21938 0.498062,-0.36975 0.498062,-0.36974 0.226634,-0.44099 0.226634,-0.44099 0.0027,-0.95356 0.0027,-0.95357 -0.736957,-2.98995 -0.736958,-2.98995 -0.01842,-0.64325 -0.01842,-0.64326 1.742071,-3.85291 1.742072,-3.85289 0.235316,-0.50455 0.235316,-0.50455 h 0.241044 0.241045 l 0.251731,0.50455 0.251731,0.50455 0.434576,1.25406 0.434575,1.25406 0.606064,0.53213 0.606066,0.53214 0.455312,0.11427 0.455312,0.11428 0.486617,-0.12214 0.486619,-0.12213 0.510926,-0.54695 0.510924,-0.54695 0.187288,-0.95618 0.187287,-0.95618 0.193694,-2.75207 0.193692,-2.75208 0.112908,-0.98344 0.112908,-0.98344 3.118506,-3.46575 3.118523,-3.46579 h 0.252034 0.252035 l 0.01391,0.0459 0.01391,0.0459 0.131132,2.14475 0.131134,2.14476 0.335814,0.37107 0.335814,0.37107 0.63192,0.20856 0.631921,0.20855 0.608528,-0.11416 0.608529,-0.11416 0.743276,-0.53843 0.743275,-0.53843 0.516813,-0.87862 0.516811,-0.87862 1.284295,-3.18384 1.2842948,-3.18383 3.8528846,-2.08923 3.85288455,-2.08923 0.32107371,-0.002 0.32109023,-0.002 v 0.34438 0.34438 l -0.55041208,1.78811 -0.55041208,1.78811 v 0.50311 0.5031 l 0.37678459,0.47901 0.37678459,0.47901 0.68542082,0.20536 0.68542087,0.20536 0.7554038,-0.20341 0.7554021,-0.20342 0.9719727,-0.86902 0.9719708,-0.86902 0.6504954,-0.71394 0.6504953,-0.71395 1.5595009,-1.84103 1.5595009,-1.84103 4.4950325,-1.15837 4.495031,-1.15835 0.137604,-0.002 0.137603,-0.002 -0.0056,0.32107 -0.0056,0.32107 -1.551797,1.74298 -1.551795,1.74298 -0.37961,1.13349 -0.379609,1.13349 0.05643,5.22454 0.05643,5.22454 -1.024802,0.48651 -1.024801,0.48652 -1.033778,0.86127 -1.033779,0.86127 -0.9140049,1.14786 -0.9140051,1.14787 -0.5565602,1.16617 -0.556562,1.16618 -0.3210792,1.17192 -0.3210792,1.17191 0.016879,2.20166 0.016879,2.20166 0.3908953,1.19257 0.3908953,1.19256 0.00237,0.24028 0.00237,0.24027 -0.7572459,1.59443 -0.7572459,1.59444 -6.5101842,13.02642 -6.5101842,13.02642 -4.1363098,8.16444 -4.136312,8.16445 -0.05178,0.0651 -0.05178,0.065 -1.937133,0.0989 -1.937133,0.0989 -0.04656,-23.28122 -0.04657,-23.28123 h -5.412386 -5.412385 l -0.04647,27.1078 -0.04647,27.10779 h -0.324604 -0.324604 z m 2.546711,-25.70036 0.113638,-26.76554 0.207916,-0.25052 0.207917,-0.25053 h 5.374915 5.374915 l 0.29021,0.11137 0.290212,0.11136 v 23.18942 23.18941 h 0.800012 0.800011 l 0.842671,-0.1155 0.842672,-0.1155 6.0285609,-11.9477 6.0285608,-11.94769 5.3648592,-10.75595 5.3648574,-10.75595 -0.4143833,-1.16965 -0.414385,-1.16966 -0.00811,-2.66034 -0.00811,-2.66033 0.4285931,-1.2843 0.428593,-1.2843 0.6695231,-1.2843 0.6695249,-1.28431 1.4704719,-1.48467 1.470474,-1.48467 1.166106,-0.64966 1.166107,-0.64966 0.09485,-5.36728 0.09485,-5.36729 0.324286,-0.92085 0.324286,-0.92085 1.258554,-1.47037 1.258556,-1.47037 0.139049,-0.23027 0.13905,-0.23026 -4.149288,1.07017 -4.1492893,1.07018 -0.1400542,0.15455 -0.1400542,0.15455 -1.8341216,2.20166 -1.8341217,2.20166 -0.9449218,0.88195 -0.9449217,0.88194 -0.7764315,0.35246 -0.7764333,0.35246 -0.6760711,0.004 -0.67607121,0.004 -0.47764944,-0.18161 -0.47764943,-0.1816 -0.45164797,-0.48734 -0.45164795,-0.48734 v -0.88984 -0.88983 l 0.35530198,-1.05569 0.35530384,-1.0557 0.18055168,-0.68886 0.18055167,-0.68885 -1.13213527,0.6277 -1.1321334,0.6277 -2.5685897,1.40043 -2.5685897,1.40043 -0.1950386,0.22023 -0.1950385,0.22024 -0.8883467,2.2934 -0.8883486,2.29339 -0.6879523,1.38303 -0.687951,1.38302 -0.613781,0.60379 -0.613781,0.60378 -0.618685,0.26072 -0.618687,0.26072 h -0.729616 -0.729617 l -0.64658,-0.30682 -0.646578,-0.30682 -0.252636,-0.60465 -0.252633,-0.60464 -0.01829,-1.24433 -0.01829,-1.24432 -0.120357,-0.42805 -0.120357,-0.42806 -0.828581,0.88674 -0.828581,0.88672 -2.149948,2.41636 -2.14995,2.41636 -0.279298,3.72995 -0.279295,3.72994 -0.111897,0.64214 -0.111897,0.64216 -0.36181,0.65867 -0.361808,0.65868 -0.51556,0.30455 -0.515558,0.30455 -0.705575,-3.7e-4 -0.705575,-3.6e-4 -0.638491,-0.32079 -0.638489,-0.3208 -0.404753,-0.60603 -0.404753,-0.60603 -0.40136,-1.22868 -0.401362,-1.22868 -0.12417,-0.13771 -0.124169,-0.1377 -1.890893,4.24407 -1.890893,4.24407 0.117854,0.75564 0.117854,0.75562 0.743314,3.0139 0.743313,3.01389 -0.125452,0.83657 -0.12545,0.83657 -0.260554,0.50386 -0.260554,0.50386 -0.538197,0.27831 -0.538194,0.27831 h -0.485928 -0.485928 l -0.634219,-0.30096 -0.63422,-0.30095 -1.213119,-1.35009 -1.213118,-1.35009 -0.0616,0.0616 -0.0616,0.0616 -0.299088,4.24655 -0.29909,4.24656 1.014165,1.70031 1.014164,1.70032 0.945965,1.86998 0.945964,1.86998 0.195984,1.06555 0.195983,1.06555 -0.214474,0.78812 -0.214473,0.78811 -0.586954,0.35789 -0.586956,0.35789 -0.605391,7.3e-4 -0.605391,7.4e-4 -0.587168,-0.29825 -0.587169,-0.29825 -1.159127,-0.82072 -1.159126,-0.82072 -0.08704,0.087 -0.08704,0.087 0.751077,4.01333 0.751076,4.01333 0.08863,0.2752 0.08863,0.27521 0.865141,0.68302 0.865142,0.68301 1.958648,1.91402 1.958649,1.91402 0.562352,0.98064 0.562351,0.98065 0.0017,0.69712 0.0017,0.69713 -0.287392,0.55575 -0.287392,0.55576 -0.662314,0.27673 -0.662315,0.27673 -0.839133,-0.12426 -0.839132,-0.12426 -1.26937,-0.44177 -1.269369,-0.44176 -0.08595,0.0859 -0.08595,0.0859 2.0892,3.58797 2.089201,3.58796 2.28513,1.63934 2.285129,1.63934 0.03024,-0.0388 0.03024,-0.0388 0.11364,-26.76553 z m 26.5373789,19.35429 v -0.16415 l 3.14131737,-6.02798 3.14131913,-6.02799 3.986831,-7.70577 3.9868326,-7.70577 2.882962,-5.52325 2.882961,-5.52325 2.153034,0.0887 2.153032,0.0887 1.028115,-0.29888 1.028115,-0.29889 h 0.162773 0.162771 l 0.516542,1.02014 0.51654,1.02013 -0.0654,0.0607 -0.0654,0.0607 -1.773071,0.8257 -1.773074,0.82571 -0.516142,0.77994 -0.516141,0.77994 v 0.69306 0.69306 l 0.362773,0.40823 0.362771,0.40824 0.804236,0.35972 0.804237,0.35972 2.168812,0.13844 2.168813,0.13844 1.030797,0.50432 1.030797,0.50432 0.537053,0.74138 0.537054,0.74138 -0.0088,0.84396 -0.0088,0.84396 -0.312262,0.58166 -0.312261,0.58166 -0.618199,1.03848 -0.618198,1.03849 0.205389,0.20538 0.205379,0.20539 v 0.28535 0.28535 l -6.467342,6.44597 -6.467342,6.44596 -0.776632,0.0943 -0.776631,0.0943 -0.805846,0.3901 -0.805845,0.3901 -4.1592772,4.21454 -4.1592788,4.21454 H -0.31678543 -3.7944321 Z m 10.8959319,-4.43387 4.1608162,-4.23108 0.957145,-0.44563 0.957146,-0.44563 0.575091,-0.002 0.575092,-0.002 6.305059,-6.33052 6.30506,-6.33052 0.01367,-0.77897 0.01367,-0.77897 0.673393,-1.00347 0.673394,-1.00347 0.202592,-0.61385 0.202592,-0.61386 -0.11182,-0.59605 -0.11182,-0.59605 -0.59437,-0.57515 -0.594371,-0.57516 -0.917354,-0.4054 -0.917353,-0.40541 -2.031369,-0.12599 -2.031368,-0.126 -1.028716,-0.47096 -1.028715,-0.47096 -0.288256,-0.55743 -0.288256,-0.55742 v -0.53712 -0.53712 l 0.266551,-0.63795 0.266554,-0.63795 0.612322,-0.53114 0.612321,-0.53115 1.368642,-0.63776 1.368642,-0.63775 0.06439,-0.0382 0.06438,-0.0382 -0.41422,-0.73701 -0.414221,-0.737 -0.333402,0.17843 -0.333401,0.17843 -1.352247,0.17145 -1.352248,0.17144 -1.315226,-0.14053 -1.315225,-0.14053 -0.98452,1.84576 -0.984504,1.84585 -5.0880696,9.81568 -5.0880698,9.81568 -3.53381622,6.78842 -3.53381798,6.78841 -0.3033523,0.59628 -0.3033541,0.59628 h 3.09706416 3.09706234 z m 3.0201052,-7.81749 -0.3029409,-0.0804 -0.1906775,-0.49458 -0.1906792,-0.49458 -0.110198,-1.74297 -0.110198,-1.74298 -0.096862,-0.66752 -0.096863,-0.66753 -0.3269264,0.0855 -0.3269246,0.0855 -0.302556,-0.30256 -0.3025579,-0.30256 v -0.13422 -0.13422 l 0.5662842,-0.77003 0.5662841,-0.77002 0.4886723,0.003 0.4886724,0.003 0.2678045,0.16939 0.267805,0.1694 0.178117,2.49237 0.178117,2.49237 0.158948,-0.053 0.15895,-0.053 1.082501,-2.38226 1.082503,-2.38225 0.297725,-0.50864 0.297727,-0.50863 3.331294,0.05 3.331294,0.05 0.183553,0.52239 0.183553,0.52239 -0.351966,0.25736 -0.351965,0.25736 h -2.786263 -2.786265 l -0.185083,0.22934 -0.185082,0.22934 -1.399822,3.119 -1.399821,3.119 -0.307334,0.22934 -0.307335,0.22934 -0.194272,-0.0213 -0.194271,-0.0213 -0.302942,-0.0804 z m 0.894603,-0.65677 0.177918,-0.22934 1.428477,-3.17149 1.428477,-3.17149 0.330453,-0.17685 0.330452,-0.17685 h 2.733543 2.733544 l 0.120722,-0.12072 0.120722,-0.12073 -0.204344,-0.24622 -0.204344,-0.24622 h -2.978399 -2.978401 l -0.826924,1.78884 -0.826925,1.78884 -0.696823,1.51364 -0.696822,1.51363 H 10.774271 10.54101 l -0.0932,-0.32107 -0.0932,-0.32108 -0.126922,-2.29338 -0.126921,-2.29339 -0.154642,-0.4128 -0.1546419,-0.41281 H 9.5280428 9.2646064 l -0.4749873,0.56449 -0.4749854,0.56448 v 0.16481 0.16481 l 0.5504121,-0.11008 0.5504121,-0.11009 0.00705,0.0688 0.00705,0.0688 0.2488266,2.78417 0.2488248,2.78417 0.1218937,0.19723 0.121893,0.19722 h 0.333648 0.333649 l 0.177915,-0.22933 z m 3.022711,0.009 -0.220164,-0.22017 v -0.3381 -0.33811 l 0.866104,-0.92594 0.866105,-0.92593 -0.407428,-0.70792 -0.407428,-0.70793 v -0.37 -0.37 l 0.353651,-0.18927 0.353651,-0.18927 0.265403,0.10185 0.265405,0.10184 0.34002,0.63138 0.340021,0.63138 h 0.06226 0.06226 l 0.675766,-0.64056 0.675769,-0.64055 0.376115,-0.002 0.376115,-0.002 0.220164,0.22016 0.220165,0.22016 v 0.27808 0.27808 l -0.853858,0.86689 -0.853858,0.8669 0.318999,0.48685 0.318999,0.48685 -0.110784,0.4414 -0.110783,0.44139 h -0.471641 -0.471638 l -0.338038,-0.41281 -0.338035,-0.41281 -0.799142,0.77975 -0.799141,0.77976 h -0.277436 -0.277435 l -0.220165,-0.22017 z m 1.431072,-0.9724 0.810283,-0.82561 h 0.184245 0.184247 l 0.403256,0.50454 0.403256,0.50455 0.143369,-0.14222 0.143371,-0.14221 -0.21866,-0.6047 -0.21866,-0.60469 v -0.2867 -0.2867 l 0.748595,-0.67631 0.748595,-0.67631 -0.10069,-0.26239 -0.100689,-0.26239 h -0.151994 -0.151993 l -0.716618,0.73388 -0.716618,0.73388 h -0.204187 -0.204186 l -0.412464,-0.73388 -0.412466,-0.73388 h -0.263466 -0.263468 v 0.23956 0.23956 l 0.458677,0.6217 0.458677,0.6217 v 0.27966 0.27966 l -0.939256,0.95107 -0.939257,0.95107 0.124467,0.20139 0.124465,0.20139 h 0.134443 0.134442 z"
       id="path709" /><g
       id="g3577"
       transform="translate(-44.828278,8.34285)"
       style="fill:#000000"><g
         id="g3715"
         style="fill:#000000"><path
           id="path771"
           style="fill:#000000;stroke:#000000;stroke-width:0.183471;stroke-opacity:1"
           d="m 161.76448,20.490783 c -0.76236,0.0029 -1.21332,0.04338 -1.49396,0.121956 -1.03687,0.290306 -3.82414,2.490894 -3.66851,2.896464 0.13438,0.350735 0.13214,10.839204 -0.003,11.057207 -0.0499,0.08074 0.38775,0.402196 0.97307,0.714168 1.41778,0.755667 3.14371,2.189749 4.05091,3.365686 0.99665,1.291836 1.99008,3.349905 2.3425,4.85345 0.40242,1.716903 0.26677,5.185639 -0.26769,6.844027 l -0.38757,1.202511 1.81488,4.107759 1.81539,4.10776 1.49603,0.652157 c 0.82283,0.358702 2.02059,1.044582 2.66134,1.523942 1.37992,1.03231 7.94002,7.78862 8.38243,8.63306 0.16899,0.32255 0.36353,0.98765 0.43253,1.47795 0.15829,1.12426 0.56126,1.52701 1.67794,1.67896 0.48659,0.0662 1.02159,0.15823 1.18907,0.20413 0.39332,0.10775 3.54719,3.72239 4.11655,4.71805 0.50441,0.88207 0.5768,2.0781 0.17311,2.85874 -0.14721,0.28469 -1.62234,1.81132 -3.27835,3.39256 l -3.01119,2.87476 1.01235,2.05672 c 2.11596,4.30013 4.66677,9.80186 4.99401,10.77144 0.66132,1.9594 3.48683,13.22639 3.48609,13.90148 -0.002,1.85014 -2.10087,3.0495 -3.69228,2.10943 -0.30988,-0.18305 -1.55197,-1.76168 -2.92386,-3.71554 -1.31182,-1.86836 -2.5324,-3.58926 -2.71197,-3.82405 l -0.3266,-0.42685 -1.45624,1.32395 c -5.66491,5.15008 -12.52442,8.50341 -20.21324,9.88105 -5.84069,1.04651 -11.02136,0.90804 -16.65273,-0.44493 -2.43683,-0.58548 -5.73665,-1.69765 -7.0466,-2.37505 -0.53942,-0.25308 -1.10244,0.10922 -1.59783,0.48214 -0.75409,0.85242 -2.47013,1.95296 -3.38946,2.17351 -1.18706,0.28477 -2.5024,0.0286 -3.57291,-0.69557 -0.93716,-0.63396 -5.51481,-5.46912 -5.81565,-6.14277 -0.17119,-0.38334 -0.3577,-0.50725 -0.7767,-0.51625 -0.30333,-0.006 -0.89464,-0.0509 -1.31413,-0.0992 -0.73728,-0.0849 -0.79221,-0.0532 -1.65106,0.94568 -1.02298,1.18969 -1.61316,1.55029 -2.5368,1.55029 -1.37839,0 -2.29651,-0.69229 -2.29651,-1.73116 v -0.47025 h -5.00434 c -4.22159,-0.003 -2.87249,0.39771 -6.46265,-1.50275 -0.35318,-0.0412 -0.64186,-0.0296 -0.64131,0.0258 0.002,0.23262 0.97928,1.21467 3.51245,3.53157 l 2.68718,2.45825 1.99109,0.23719 c 5.58451,0.66574 7.59628,1.25941 8.32662,2.45722 1.00885,1.6546 0.0496,2.85024 -3.03289,3.77961 -1.91933,0.57867 -1.98969,0.66666 -0.91415,1.1405 0.50284,0.22153 2.41466,1.08445 4.24883,1.9172 l 3.33468,1.5136 3.54552,-0.89659 c 2.11473,-0.53482 3.95791,-0.89817 4.56767,-0.89917 2.08987,-0.005 3.83956,1.02421 3.83956,2.25878 0,0.8459 -0.6025,1.55174 -2.30734,2.70216 -1.4503,0.97865 -1.69787,1.23223 -1.32757,1.36064 0.13253,0.046 1.47897,0.21145 2.99258,0.36742 1.51363,0.15596 3.28907,0.36953 3.94498,0.47439 l 1.19269,0.19069 1.52239,-1.00253 c 2.93389,-1.93062 6.32355,-3.41839 7.78763,-3.41839 1.00065,0 2.44373,0.51213 3.05666,1.08469 0.70831,0.66169 0.72327,1.1699 0.0822,2.80396 -0.4125,1.0514 -0.44876,1.28246 -0.23978,1.53427 h 5.2e-4 c 0.36878,0.44435 1.08165,0.28449 5.54384,-1.24333 l 3.99252,-1.36736 2.31459,-1.91048 c 2.92062,-2.41139 3.63326,-2.88243 4.57802,-3.0241 1.30039,-0.19501 2.46418,0.67789 2.45618,1.84226 -0.002,0.3055 -0.24962,1.25294 -0.55036,2.10582 -0.60896,1.72698 -0.67154,2.21071 -0.28525,2.21071 0.14397,0 1.80826,-0.68645 3.69848,-1.52548 l 3.437,-1.52549 1.93115,-3.84111 c 1.62578,-3.23314 2.09302,-4.00308 2.95227,-4.8643 1.20841,-1.21116 1.92341,-1.44296 2.93057,-0.95033 1.19855,0.58622 1.52406,1.86659 1.11518,4.38577 -0.1041,0.6415 -0.11569,1.30896 -0.0274,1.54771 0.14425,0.38992 0.39024,0.19344 3.45509,-2.75952 l 3.29954,-3.17913 0.69557,-4.51497 c 0.38249,-2.48311 0.85658,-5.01279 1.05368,-5.62188 0.71421,-2.2071 2.30677,-3.27304 3.3848,-2.26601 0.68869,0.64333 0.92394,1.19511 1.43816,3.37137 0.25482,1.07844 0.54059,2.09839 0.63459,2.26601 0.1327,0.23664 0.62715,-0.62743 2.21278,-3.86436 l 2.04225,-4.16874 -0.42064,-2.89492 c -0.26497,-1.82417 -0.42227,-3.77676 -0.42427,-5.27978 -0.003,-2.11769 0.0421,-2.47068 0.40411,-3.14761 0.47458,-0.88749 1.22058,-1.53106 1.77302,-1.53014 0.6051,0.001 1.52477,0.65131 2.0004,1.41439 0.23814,0.38206 0.79378,1.37563 1.23455,2.20813 0.44078,0.8325 0.85702,1.51412 0.92552,1.51412 0.0685,0 0.17918,-0.43348 0.24598,-0.96325 0.0668,-0.52977 0.37061,-2.63975 0.6749,-4.6886 l 0.55293,-3.72535 -0.39119,-0.63304 c -0.2153,-0.34836 -0.47968,-0.57881 -0.58756,-0.51211 -0.1153,0.0713 -0.14296,0.0345 -0.0667,-0.0889 0.0714,-0.1155 -0.45433,-1.18652 -1.16841,-2.38073 -2.19491,-3.67076 -2.87055,-5.77656 -2.40657,-7.49773 0.23062,-0.85549 1.09701,-1.71239 1.72703,-1.70739 0.58506,0.004 1.55921,0.65358 3.23029,2.15284 0.81543,0.73159 1.5534,1.33015 1.6397,1.33015 0.18348,0 0.20764,0.14902 -0.82321,-5.04569 l -0.80098,-4.03645 -1.14825,-1.00148 c -2.20338,-1.92224 -5.48446,-5.24305 -6.04873,-6.12211 -1.32996,-2.07193 -0.6508,-4.342889 1.29863,-4.342889 0.2799,0 1.3702,0.321024 2.42259,0.713651 3.08708,1.151708 2.89214,1.160538 2.18126,-0.09715 -0.79934,-1.414207 -2.27507,-3.852553 -3.38325,-5.590357 -0.70215,-1.101047 -1.02904,-1.445014 -1.54771,-1.626774 -1.51464,-0.530767 -5.31318,-2.463249 -6.88485,-3.502628 -1.96544,-1.299763 -2.67116,-2.197804 -2.67116,-3.399793 0,-0.651604 0.0996,-0.857519 0.64854,-1.339453 0.76745,-0.673822 0.82948,-0.681454 4.02973,-0.488859 l 2.01848,0.121439 -0.91726,-0.865063 c -0.50455,-0.47587 -2.03235,-1.960117 -3.39462,-3.298507 l -2.47685,-2.433443 -2.66031,-0.207222 c -1.46315,-0.113797 -3.23633,-0.28688 -3.94032,-0.38499 -3.6285,-0.505701 -5.60018,-1.807082 -5.60018,-3.695898 0,-1.183357 0.7275,-1.754767 2.85926,-2.246891 2.87315,-0.663285 3.05872,-0.762391 2.14044,-1.141533 -0.2775,-0.114572 -2.27576,-0.947846 -4.44056,-1.851566 -3.09288,-1.291165 -4.03614,-1.612864 -4.40335,-1.502751 -5.15406,1.545531 -6.33761,1.830896 -7.59178,1.830896 -2.10639,0 -3.48834,-0.889315 -3.71347,-2.389518 -0.13786,-0.918706 0.35208,-1.582708 2.3058,-3.123841 0.91876,-0.724738 1.63709,-1.350836 1.59629,-1.391646 -0.0408,-0.04081 -1.9196,-0.161166 -4.17546,-0.267167 -1.52588,-0.0717 -2.59971,-0.106257 -3.36207,-0.103353 z m 22.28081,30.392977 h 1.46296 1.46244 v 2.752287 2.75177 h 2.75229 2.75229 v 1.476912 1.476913 l -2.75281,-0.05478 -2.75228,-0.05529 5.1e-4,2.889748 v 2.88974 h -1.46761 -1.46812 l 5.1e-4,-2.88974 5.2e-4,-2.889231 -2.64635,0.05478 -2.64635,0.05529 -0.0605,-1.472778 -0.0599,-1.472778 2.66031,-0.05013 2.6603,-0.05013 0.0506,-2.706294 z m 10.25467,18.35547 h 3.16363 c 2.6625,0 3.20147,0.0459 3.40445,0.29042 0.17473,0.2106 0.18802,0.37481 0.0486,0.59635 -0.16265,0.2584 -0.65721,0.31989 -3.19618,0.39739 l -3.00344,0.092 -1.52135,3.38533 c -0.83675,1.86214 -1.62315,3.4507 -1.74718,3.5295 -0.40924,0.25996 -0.85527,0.1549 -1.1219,-0.26407 -0.21116,-0.33181 -0.66301,-4.13665 -0.66301,-5.58261 0,-0.20327 -0.0791,-0.21292 -0.38809,-0.0475 -0.3087,0.1652 -0.44766,0.14818 -0.67747,-0.0816 -0.26318,-0.26318 -0.239,-0.3509 0.26923,-0.98082 0.68585,-0.85006 1.43828,-1.01904 1.70532,-0.38292 0.0981,0.23367 0.2633,1.57271 0.3669,2.97605 0.1036,1.40334 0.21697,2.58012 0.25167,2.61482 0.0347,0.0347 0.46097,-0.82456 0.94723,-1.90944 0.48627,-1.08488 1.17151,-2.57105 1.5229,-3.30264 z m 1.43764,2.77399 c 0.23752,-0.0201 0.52081,0.23874 0.86558,0.78238 l 0.51005,0.80409 0.85938,-0.81184 c 0.73358,-0.69316 0.91357,-0.78316 1.22886,-0.61443 0.57009,0.30511 0.44541,0.7367 -0.48472,1.68103 -0.84023,0.85306 -0.84896,0.87442 -0.55036,1.33015 0.38264,0.5837 0.38411,0.91489 0.005,1.22938 -0.25936,0.21526 -0.36345,0.17014 -0.79065,-0.34158 l -0.49196,-0.58911 -0.80718,0.82269 c -0.75457,0.76886 -1.23634,0.9899 -1.52601,0.70022 -0.29015,-0.29014 -0.0637,-0.75131 0.79685,-1.62264 l 0.91881,-0.93018 -0.55346,-0.87333 c -0.443,-0.69856 -0.51554,-0.94451 -0.36225,-1.23093 0.11326,-0.21164 0.23938,-0.32386 0.38189,-0.3359 z" /><path
           style="fill:#000000;stroke:#000000;stroke-width:0.183471;stroke-opacity:1"
           d="m 130.54105,92.66922 c 2.55698,-4.88723 3.21255,-6.15067 10.01969,-19.31029 2.34889,-4.5409 4.77408,-9.20564 5.38932,-10.36609 0.61523,-1.16045 1.36452,-2.581333 1.66508,-3.157503 0.49652,-0.95182 0.58864,-1.03568 1.00772,-0.91735 0.85093,0.24025 4.08334,0.0977 4.93903,-0.21778 0.44461,-0.16393 0.82663,-0.27654 0.84894,-0.25023 0.0943,0.11115 0.81955,1.60049 0.81955,1.68293 0,0.0496 -0.71883,0.42707 -1.59739,0.838783 -1.82815,0.8567 -2.16002,1.11543 -2.64196,2.05971 -0.48653,0.95327 -0.44758,1.83243 0.11057,2.49576 0.70549,0.83842 1.7559,1.17823 4.07105,1.31698 1.8063,0.10826 2.19738,0.19448 3.26403,0.71959 1.53772,0.75702 2.21259,1.66183 2.06427,2.76761 -0.0542,0.40376 -0.47785,1.38125 -0.94155,2.17218 -0.8897,1.51759 -0.98015,1.83751 -0.62105,2.19661 0.17371,0.17372 -1.19464,1.63868 -6.28933,6.73337 -6.04997,6.04998 -6.55646,6.51148 -7.14804,6.51314 -1.3997,0.004 -2.27857,0.67726 -6.67447,5.11354 l -4.20307,4.24168 h -3.25308 -3.25309 z"
           id="path817" /><path
           style="fill:#000000;stroke:#000000;stroke-width:0.183471;stroke-opacity:1"
           d="m 101.23185,70.29726 c -0.0586,-0.14636 -0.10203,-0.10288 -0.11083,0.11085 -0.008,0.19341 0.0354,0.30177 0.0964,0.24081 0.061,-0.061 0.0675,-0.21921 0.0145,-0.35166 z"
           id="path815" /><path
           style="fill:#000000;fill-opacity:1;stroke:#000000;stroke-width:0.183471;stroke-opacity:1"
           d="m 99.019315,103.48381 c -1.87238,-1.31606 -2.49234,-1.8636 -2.98876,-2.63962 -1.12714,-1.762 -3.9163,-6.72029 -3.82928,-6.80731 0.0468,-0.0468 0.81049,0.14515 1.6972,0.42645 0.88671,0.28129 2.05227,0.51903 2.59014,0.5283 0.88254,0.0152 1.03019,-0.0416 1.51363,-0.58233 0.41428,-0.46337 0.5353,-0.77525 0.53397,-1.37603 -0.003,-1.4649 -1.06358,-2.77152 -5.69326,-7.01566 l -1.19995,-1.10002 -0.79828,-4.36209 c -0.43906,-2.39915 -0.74947,-4.4109 -0.68981,-4.47056 0.0597,-0.0597 0.67608,0.30436 1.36982,0.80894 1.6116,1.17218 2.27437,1.5105 2.9591,1.5105 1.4149,0 2.15287,-1.0156 1.9769,-2.72059 -0.10995,-1.06526 -1.09142,-3.29416 -2.62148,-5.95334 -0.464962,-0.838468 -0.85345,-1.52448 -1.26471,-2.08579 -0.29759,-0.45417 -0.29872,-0.71772 -0.0195,-4.53932 0.16301,-2.23143 0.29615,-4.284203 0.29586,-4.561703 -3.7e-4,-0.2775 0.064,-0.50454 0.14289,-0.50454 0.0789,0 0.62855,0.57203 1.2215,1.27119 0.59295,0.69915 1.31746,1.448163 1.61003,1.664473 1.10649,0.81806 2.65662,0.62825 3.18305,-0.389753 0.56482,-1.09223 0.5214,-1.94163 -0.26153,-5.11611 -1.18695,-4.81262 -1.28746,-3.90394 0.99394,-8.985921 1.089825,-2.427649 2.048235,-4.347176 2.129795,-4.26562 0.0816,0.08156 0.36347,0.764509 0.62648,1.517673 0.833,2.385382 1.37011,2.945496 2.9501,3.076521 0.9102,0.07548 1.012,0.04058 1.60172,-0.549142 0.34636,-0.34636 0.71628,-0.955006 0.82205,-1.352546 0.10577,-0.397541 0.32432,-2.49788 0.48567,-4.667421 0.23082,-3.103838 0.35953,-4.029881 0.60388,-4.344627 0.17079,-0.220005 1.30127,-1.488086 2.51218,-2.817963 1.2109,-1.329874 2.46229,-2.718546 2.78083,-3.085935 0.31856,-0.367391 0.6356,-0.612375 0.70457,-0.544414 0.069,0.06796 0.17015,0.976143 0.22489,2.018178 0.11264,2.144286 0.20762,2.413955 1.02578,2.91283 1.18937,0.72521 3.01028,0.29467 4.07841,-0.964307 0.61072,-0.719864 1.75486,-3.12591 2.83865,-5.9695 l 0.78616,-2.062702 3.13433,-1.691896 c 1.72388,-0.930541 3.27411,-1.691893 3.44496,-1.691893 0.17085,0 0.27271,-0.06135 0.22637,-0.136342 -0.071,-0.114882 0.84212,-0.702381 1.09168,-0.702381 0.12583,0 -0.21857,1.439276 -0.6366,2.660325 -0.49087,1.433834 -0.50986,2.539762 -0.0523,3.045373 0.52203,0.576837 1.25732,0.899733 2.03855,0.895218 1.58514,-0.0092 2.92633,-1.092642 6.18046,-4.992875 1.46342,-1.753975 1.92094,-2.185626 2.46811,-2.328527 5.44331,-1.421611 7.96806,-2.044611 8.09448,-1.997373 0.0847,0.03164 -0.56007,0.861883 -1.43277,1.844977 -2.16646,2.440503 -2.18665,2.517566 -2.31967,8.853857 -0.0638,3.039238 -0.036,5.05599 0.0719,5.218365 0.13641,0.205219 0.008,0.339815 -0.57159,0.599323 -3.13193,1.402208 -5.99889,5.033345 -6.85051,8.676496 -0.42824,1.831944 -0.29173,5.247393 0.27498,6.880149 l 0.41392,1.19256 -11.23922,22.408433 c -6.18158,12.32463 -11.37407,22.58719 -11.53889,22.80569 -0.25621,0.33967 -0.54441,0.41312 -1.98813,0.50665 l -1.68848,0.10939 -0.0466,-23.28202 -0.0466,-23.282023 h -5.59585 -5.59586 l -0.0984,3.39421 c -0.0541,1.86681 -0.11773,14.039513 -0.14141,27.050443 -0.0237,13.01094 -0.062,23.67152 -0.0851,23.6902 -0.0231,0.0187 -1.10515,-0.71328 -2.404475,-1.62655 z"
           id="path813"
           sodipodi:nodetypes="cssssscscsssssccccsssssscsssssssscsssscsssssscsssssccsscssscccccccscc" /><path
           style="fill:#000000;stroke:#000000;stroke-width:0.183471;stroke-opacity:1"
           d="m 142.8365,107.9528 c 0.7293,-0.73927 3.31167,-3.46542 5.00932,-5.18009 l 2.92277,-2.95053 2.36848,-0.0395 c 1.30266,-0.0217 2.47168,-0.002 2.59781,0.0438 0.17587,0.0638 0.22934,1.25509 0.22934,5.10904 v 5.02582 h -1.2843 -1.28429 v -2.01818 c 0,-1.77355 -0.0445,-2.06266 -0.36694,-2.38512 -0.45791,-0.45791 -1.13257,-0.47175 -1.53107,-0.0314 -0.2444,0.27006 -0.30364,0.73541 -0.30364,2.38512 v 2.0496 h -1.8347 -1.83471 v -2.08148 c 0,-2.29097 -0.17024,-2.68876 -1.15073,-2.68876 -0.8355,0 -1.05091,0.57247 -1.05091,2.79288 v 1.97736 h -2.24439 -2.24439 z"
           id="path809"
           sodipodi:nodetypes="cccscscccsssscccssscccc" /><path
           style="fill:#000000;stroke:#000000;stroke-width:0.183471;stroke-opacity:1"
           d="M 103.85859,81.70685 V 53.268887 l 3.44008,-3.6e-4 3.44006,-3.7e-4 -0.0568,2.10303 -0.0569,2.10303 -1.49621,0.0531 c -1.41734,0.0503 -1.51108,0.0797 -1.77786,0.55765 -0.25319,0.4536 -0.25319,0.5555 0,1.00909 0.26707,0.47846 0.35957,0.5073 1.78884,0.55783 l 1.50722,0.0533 v 1.919023 1.91903 h -1.43933 c -1.58907,1e-5 -2.04662,0.25324 -2.04662,1.13271 0,0.80637 0.51058,1.06895 2.07849,1.06895 h 1.40746 v 1.92644 1.92644 h -1.33521 c -1.63907,0 -2.15074,0.28372 -2.15074,1.19256 0,0.90885 0.51167,1.19256 2.15074,1.19256 h 1.33521 v 1.92644 1.92645 h -1.45467 c -1.6321,0 -2.03128,0.21633 -2.03128,1.10082 0,0.88449 0.39918,1.10082 2.03128,1.10082 h 1.45467 v 2.01818 2.01818 h -1.52281 c -1.70191,0 -1.96314,0.13741 -1.96314,1.03268 0,0.95532 0.37125,1.16897 2.03128,1.16897 h 1.45467 v 2.00373 2.00372 l -1.43957,-0.0314 c -1.66755,-0.0364 -2.04638,0.1633 -2.04638,1.07876 0,0.97014 0.36578,1.1832 2.03127,1.1832 h 1.45467 v 1.92644 1.92645 h -1.38809 c -0.76346,0 -1.5383,0.0804 -1.72187,0.17863 -0.64918,0.34743 -0.61028,1.60147 0.0643,2.07213 0.11103,0.0775 0.85663,0.12678 1.65687,0.10959 l 1.45498,-0.0313 -0.0465,1.14051 c -0.0755,1.84959 0.0948,1.98861 2.52761,2.06399 1.10544,0.0342 2.05649,0.1091 2.11346,0.16632 0.057,0.0572 -0.43391,2.03872 -1.09082,4.4033 -0.65692,2.36459 -1.27798,4.60885 -1.38013,4.98726 l -0.18572,0.68802 h -4.39624 -4.39621 z"
           id="path801" /><path
           id="path793"
           style="fill:#000000;stroke:#000000;stroke-width:0.183471;stroke-opacity:1"
           d="m 151.46899,22.812605 c -1.5893,0 -1.9469,0.05533 -2.33578,0.361218 l -0.4594,0.361219 -0.1354,5.064807 c -0.1333,4.989753 -0.12949,5.07046 0.25115,5.475635 0.29925,0.31858 0.38654,0.646608 0.38654,1.454691 v 1.04283 h -0.59634 c -0.75199,1.81e-4 -2.69278,0.90966 -3.92586,1.839681 -1.21406,0.915673 -2.61878,3.014339 -3.19516,4.774386 -0.38157,1.165069 -0.44615,1.705358 -0.43615,3.660242 0.01,2.033124 0.0678,2.4433 0.51005,3.615283 l 0.4992,1.3224 -11.99876,23.996983 -11.99926,23.99699 -1.8588,6.11539 c -1.02235,3.36351 -1.85881,6.23225 -1.85881,6.37532 0,0.14306 0.0744,0.26045 0.16485,0.26045 0.0905,0 2.10287,-2.41502 4.47208,-5.3666 l 4.30775,-5.3666 3.2582,-6.32984 c 12.15801,-23.61885 20.09156,-38.773053 20.54086,-39.235853 0.39158,-0.40335 0.44805,-0.412934 0.85473,-0.147795 1.14345,0.7455 4.20032,0.709649 6.29316,-0.07338 0.79025,-0.29567 1.11047,-0.342909 1.26917,-0.187069 0.11672,0.11461 0.63117,0.969674 1.1436,1.900143 0.51243,0.930469 1.01798,1.674646 1.12344,1.653646 1.40244,-0.27878 2.86818,-0.418096 4.41214,-0.419096 1.03431,-7.6e-4 1.88102,-0.0465 1.88102,-0.101803 0,-0.05532 -0.74059,-1.668899 -1.64538,-3.585828 -0.9048,-1.916928 -1.66123,-3.58515 -1.68103,-3.70675 -0.0198,-0.12161 0.13739,-0.608021 0.34933,-1.081071 0.79875,-1.782823 1.01654,-4.841573 0.47904,-6.725688 -0.46455,-1.628413 -1.50805,-3.450913 -2.62464,-4.584216 -1.17864,-1.196267 -3.17884,-2.321935 -4.46381,-2.511991 l -0.87179,-0.129191 v -1.171505 c 0,-1.049413 0.0383,-1.171505 0.36691,-1.171505 0.35894,0 0.36742,-0.122672 0.36742,-5.307686 v -5.30717 l -0.4837,-0.380338 c -0.4175,-0.328417 -0.73953,-0.380339 -2.36057,-0.380339 z m -0.23617,18.011304 c 0.14809,-1.1e-4 0.29859,0.0045 0.45166,0.01395 3.23752,0.20017 5.384,2.509452 5.379,5.787244 -0.003,2.016033 -1.10461,3.892346 -2.90422,4.946985 -1.14607,0.671639 -3.68478,0.789911 -5.06171,0.236161 -1.15519,-0.464579 -2.19141,-1.478163 -2.81946,-2.759004 -0.41209,-0.840415 -0.49455,-1.254432 -0.49455,-2.476852 0,-1.246543 0.0795,-1.630807 0.52969,-2.549198 1.03916,-2.119768 2.6983,-3.197636 4.91959,-3.199288 z" /><path
           style="fill:#000000;stroke:#000000;stroke-width:0.183471;stroke-opacity:1"
           d="m 186.21545,112.66753 c -0.83068,-1.23614 -2.42845,-3.56851 -3.55058,-5.18305 -1.12212,-1.61454 -2.68977,-4.13268 -3.48365,-5.59586 -2.52455,-4.65294 -7.74899,-14.01493 -9.88018,-17.70492 l -1.37755,-2.38512 0.48773,-0.52714 c 0.97312,-1.05176 2.34616,-1.26665 3.05918,-0.47878 0.33154,0.36635 0.31338,0.71858 -0.10899,2.11415 -0.2953,0.97569 -0.11426,1.84476 0.61403,2.94762 0.78142,1.18332 3.00189,3.51366 3.68419,3.86649 0.69005,0.35684 2.41388,0.34374 2.97298,-0.0226 0.48051,-0.31483 0.25294,-0.72525 4.06161,7.32491 1.8443,3.89819 1.73795,3.56055 5.15738,16.37259 0.3367,1.26156 0.33951,1.51922 0.0165,1.51922 -0.0783,0 -0.82199,-1.01138 -1.65268,-2.24751 z"
           id="path791" /><path
           style="fill:#000000;stroke:#000000;stroke-width:0.183471;stroke-opacity:1"
           d="m 128.29485,117.1759 c -0.33413,-0.16465 -1.61382,-1.36268 -2.8438,-2.66229 -1.72414,-1.82175 -2.30257,-2.5611 -2.52564,-3.22826 l -0.28933,-0.86534 -1.30136,-0.0917 c -0.71573,-0.0505 -1.35203,-0.1427 -1.41398,-0.20499 -0.12547,-0.12614 0.56687,-1.05118 3.34977,-4.47563 1.27085,-1.56381 2.16785,-2.88463 2.73671,-4.0298 l 0.84622,-1.70353 0.93272,-0.11208 c 0.51298,-0.0617 2.25155,-0.1128 3.86348,-0.11368 l 2.93078,-0.002 4.49978,-4.48466 c 4.6011,-4.58562 5.42102,-5.22591 6.704,-5.23526 0.48158,-0.004 1.50608,-0.95713 7.93511,-7.38616 6.34921,-6.34921 7.38213,-7.45708 7.38213,-7.91779 0,-0.29461 0.19449,-0.79114 0.4322,-1.10339 1.80068,-2.3653 1.84685,-5.03871 0.11408,-6.60417 -1.54595,-1.39667 -3.00071,-1.88401 -6.29932,-2.11023 -2.58427,-0.17723 -3.0902,-0.38403 -2.75844,-1.12752 0.20788,-0.46589 2.12364,-1.32841 4.10818,-1.84961 1.82179,-0.47846 5.57792,-0.65633 7.26858,-0.3442 1.77564,0.32781 3.90785,1.13384 5.10972,1.93159 1.21741,0.80808 6.71502,6.10366 7.42411,7.15129 0.54271,0.80182 0.80811,1.42523 1.10949,2.60612 0.37071,1.4525 1.84668,2.70093 3.48194,2.94515 0.84924,0.12682 1.00406,0.23858 2.22227,1.60409 0.72018,0.80727 1.4343,1.70923 1.58692,2.00436 l 0.2775,0.5366 -3.66243,3.63736 c -4.61165,4.58008 -4.46,4.544 -6.82727,1.62432 -1.03726,-1.2793 -1.34888,-2.03844 -0.9404,-2.29089 0.0941,-0.0582 0.26394,-0.55284 0.37738,-1.09926 0.18386,-0.88564 0.16345,-1.09297 -0.18802,-1.91 -0.61345,-1.42598 -1.97076,-2.22729 -3.77273,-2.22729 -1.08222,0 -2.30381,0.50186 -3.33626,1.37061 -0.33805,0.28444 -0.60926,0.39841 -0.67913,0.28537 -0.064,-0.10352 -0.20554,-0.18821 -0.31458,-0.18821 -0.10904,0 -3.44587,3.28183 -7.41518,7.29296 -5.69963,5.75968 -7.21788,7.39216 -7.22147,7.76482 -0.003,0.25952 -0.13691,0.86031 -0.29868,1.33507 -0.2506,0.73547 -1.12233,1.70393 -5.89085,6.54449 -5.28975,4.08902 -9.85437,11.25296 -14.47431,14.68578 -0.69776,0.43124 -1.42974,0.44677 -2.23986,0.0475 z"
           id="path787"
           sodipodi:nodetypes="cssccsssccccscsssssssssssssscsssssssssscscccc" /><path
           style="fill:#000000;stroke:#000000;stroke-width:0.183471;stroke-opacity:1"
           d="m 149.72626,118.64673 c -4.04258,-0.39333 -5.76893,-0.6917 -8.53139,-1.4745 -1.37335,-0.38916 -4.77524,-1.62286 -5.02428,-1.82207 -0.0388,-0.031 0.52721,-0.71959 1.25785,-1.53008 l 1.32846,-1.47363 8.55781,-0.004 c 7.9277,-0.004 8.61185,-0.029 9.2917,-0.34274 0.40363,-0.18629 0.94028,-0.56266 1.19256,-0.83637 l 0.45867,-0.49766 v -5.83702 c 0,-5.57733 -0.0163,-5.85535 -0.36694,-6.24913 -0.69153,-0.77667 -1.69433,-1.08579 -3.53652,-1.09015 l -1.70182,-0.004 0.28155,-0.54445 c 0.15485,-0.29944 0.34274,-0.83671 0.41752,-1.19393 0.11138,-0.53201 1.24442,-1.77949 6.26452,-6.89728 4.96111,-5.05765 6.17161,-6.20199 6.35463,-6.00729 0.12435,0.13227 2.3946,4.12091 5.04499,8.86363 2.6504,4.74271 5.46694,9.77663 6.25898,11.18648 0.79204,1.40984 1.44008,2.66419 1.44008,2.78744 0,0.12324 0.1662,0.50578 0.36934,0.85008 l 0.36935,0.62599 -1.43459,1.3706 c -4.01523,3.83612 -9.84554,7.12029 -15.35779,8.65091 -4.39174,1.21949 -9.51745,1.8017 -12.93468,1.46922 z"
           id="path785" /><path
           style="fill:#000000;fill-opacity:1;stroke:#000000;stroke-width:0.183471;stroke-opacity:1"
           d="m 149.57953,49.45443 c -0.99881,-0.54855 -1.31844,-1.218301 -1.31983,-2.765506 -0.002,-2.198479 0.81356,-3.223943 2.74593,-3.452804 2.00533,-0.237503 3.45139,0.89299 3.6136,2.825032 -0.0927,1.265209 -0.31182,2.60866 -1.18263,3.262505 -0.71037,0.52087 -3.00511,0.59867 -3.85707,0.130773 z"
           id="path799"
           sodipodi:nodetypes="scsccs" /></g><text
         xml:space="preserve"
         style="font-size:22.5778px;fill:#000000;fill-opacity:1;stroke:#000000;stroke-width:0.264583;stroke-opacity:1"
         x="96.045982"
         y="16.237608"
         id="text2258"><tspan
           sodipodi:role="line"
           id="tspan2256"
           style="font-style:normal;font-variant:normal;font-weight:bold;font-stretch:normal;font-size:22.5778px;font-family:'Courier New';-inkscape-font-specification:'Courier New Bold';fill:#000000;stroke-width:0.264583"
           x="96.045982"
           y="16.237608">Fontaine</tspan></text><text
         xml:space="preserve"
         style="font-size:16.9333px;fill:#000000;fill-opacity:1;stroke:#000000;stroke-width:0.264583;stroke-opacity:1"
         x="48.585228"
         y="151.54146"
         id="text3542"><tspan
           sodipodi:role="line"
           id="tspan3540"
           style="font-style:normal;font-variant:normal;font-weight:bold;font-stretch:normal;font-size:16.9333px;font-family:'Courier New';-inkscape-font-specification:'Courier New Bold';fill:#000000;stroke-width:0.264583"
           x="48.585228"
           y="151.54146">Charpente-Conception</tspan></text><text
         xml:space="preserve"
         transform="matrix(0.26458333,0,0,0.26458333,48.982102,1.806778)"
         id="text4070"
         style="fill:#000000;stroke:#ff0000;stroke-opacity:1;fill-opacity:1;-inkscape-font-specification:'Courier New Bold';font-family:'Courier New';font-weight:bold;font-style:normal;font-stretch:normal;font-variant:normal;font-size:64px;white-space:pre;shape-inside:url(#rect4072)" /></g></g><g
     inkscape:groupmode="layer"
     id="layer2"
     inkscape:label="axe"
     transform="translate(-4.1538241,-10.149628)" /></svg>
