<?xml version="1.0" encoding="UTF-8" standalone="no"?>
<!-- Created with Inkscape (http://www.inkscape.org/) -->

<svg
   width="210mm"
   height="297mm"
   viewBox="0 0 210 297"
   version="1.1"
   id="svg5"
   xml:space="preserve"
   xmlns:inkscape="http://www.inkscape.org/namespaces/inkscape"
   xmlns:sodipodi="http://sodipodi.sourceforge.net/DTD/sodipodi-0.dtd"
   xmlns="http://www.w3.org/2000/svg"
   xmlns:svg="http://www.w3.org/2000/svg"><sodipodi:namedview
     id="namedview7"
     pagecolor="#ffffff"
     bordercolor="#000000"
     borderopacity="0.25"
     inkscape:showpageshadow="2"
     inkscape:pageopacity="0.0"
     inkscape:pagecheckerboard="0"
     inkscape:deskcolor="#d1d1d1"
     inkscape:document-units="mm"
     showgrid="false"
     inkscape:zoom="0.84096521"
     inkscape:rotation="-1"
     inkscape:cx="585.16077"
     inkscape:cy="236.77395"
     inkscape:window-width="1920"
     inkscape:window-height="1111"
     inkscape:window-x="-9"
     inkscape:window-y="-9"
     inkscape:window-maximized="1"
     inkscape:current-layer="layer1" /><defs
     id="defs2" /><g
     inkscape:label="Calque 1"
     inkscape:groupmode="layer"
     id="layer1"><g
       id="g3577"
       transform="translate(-44.828278,8.34285)"><g
         id="g3558"
         transform="translate(44.187694)"><g
           id="g3538"><path
             id="path771"
             style="fill:#000000;stroke:#000000;stroke-width:0.183471;stroke-opacity:1"
             d="m 117.57679,20.490783 c -0.76236,0.0029 -1.21332,0.04338 -1.49396,0.121956 -1.03687,0.290306 -3.82414,2.490894 -3.66851,2.896464 0.13438,0.350735 0.13214,10.839204 -0.003,11.057207 -0.0499,0.08074 0.38775,0.402196 0.97307,0.714168 1.41778,0.755667 3.14371,2.189749 4.05091,3.365686 0.99665,1.291836 1.99008,3.349905 2.3425,4.85345 0.40242,1.716903 0.26677,5.185639 -0.26769,6.844027 l -0.38757,1.202511 1.81488,4.107759 1.81539,4.10776 1.49603,0.652157 c 0.82283,0.358702 2.02059,1.044582 2.66134,1.523942 1.37992,1.03231 7.94002,7.78862 8.38243,8.63306 0.16899,0.32255 0.36353,0.98765 0.43253,1.47795 0.15829,1.12426 0.56126,1.52701 1.67794,1.67896 0.48659,0.0662 1.02159,0.15823 1.18907,0.20413 0.39332,0.10775 3.54719,3.72239 4.11655,4.71805 0.50441,0.88207 0.5768,2.0781 0.17311,2.85874 -0.14721,0.28469 -1.62234,1.81132 -3.27835,3.39256 l -3.01119,2.87476 1.01235,2.05672 c 2.11596,4.30013 4.66677,9.80186 4.99401,10.77144 0.66132,1.9594 3.48683,13.22639 3.48609,13.90148 -0.002,1.85014 -2.10087,3.0495 -3.69228,2.10943 -0.30988,-0.18305 -1.55197,-1.76168 -2.92386,-3.71554 -1.31182,-1.86836 -2.5324,-3.58926 -2.71197,-3.82405 l -0.3266,-0.42685 -1.45624,1.32395 c -5.66491,5.15008 -12.52442,8.50341 -20.21324,9.88105 -5.84069,1.04651 -11.02136,0.90804 -16.652729,-0.44493 -2.43683,-0.58548 -5.73665,-1.69765 -7.0466,-2.37505 -0.53942,-0.25308 -1.10244,0.10922 -1.59783,0.48214 -0.75409,0.85242 -2.47013,1.95296 -3.38946,2.17351 -1.18706,0.28477 -2.50241,0.0286 -3.57291,-0.69557 -0.93716,-0.63396 -5.51482,-5.46912 -5.81566,-6.14277 -0.17118,-0.38334 -0.35769,-0.50725 -0.7767,-0.51625 -0.30332,-0.006 -0.89464,-0.0509 -1.31413,-0.0992 -0.73728,-0.0849 -0.7922,-0.0532 -1.65106,0.94568 -1.02297,1.18969 -1.61315,1.55029 -2.5368,1.55029 -1.37838,0 -2.2965,-0.69229 -2.2965,-1.73116 v -0.47025 h -5.00435 c -4.22158,-0.003 -2.87249,0.39771 -6.46265,-1.50275 -0.35318,-0.0412 -0.64186,-0.0296 -0.64131,0.0258 0.002,0.23262 0.97929,1.21467 3.51245,3.53157 l 2.68718,2.45825 1.99109,0.23719 c 5.58451,0.66574 7.59628,1.25941 8.32662,2.45722 1.00885,1.6546 0.0496,2.85024 -3.03289,3.77961 -1.91933,0.57867 -1.98969,0.66666 -0.91415,1.1405 0.50284,0.22153 2.41466,1.08445 4.24883,1.9172 l 3.33468,1.5136 3.54552,-0.89659 c 2.11473,-0.53482 3.95791,-0.89817 4.56768,-0.89917 2.08986,-0.005 3.83956,1.02421 3.83956,2.25878 0,0.8459 -0.60251,1.55174 -2.30735,2.70216 -1.4503,0.97865 -1.69787,1.23223 -1.32757,1.36064 0.13253,0.046 1.47897,0.21145 2.99258,0.36742 1.51363,0.15596 3.28907,0.36953 3.94498,0.47439 l 1.19269,0.19069 1.52239,-1.00253 c 2.93389,-1.93062 6.323559,-3.41839 7.787639,-3.41839 1.00065,0 2.44373,0.51213 3.05666,1.08469 0.70831,0.66169 0.72327,1.1699 0.0822,2.80396 -0.4125,1.0514 -0.44876,1.28246 -0.23978,1.53427 h 5.2e-4 c 0.36878,0.44435 1.08165,0.28449 5.54384,-1.24333 l 3.99252,-1.36736 2.31459,-1.91048 c 2.92062,-2.41139 3.63326,-2.88243 4.57802,-3.0241 1.30039,-0.19501 2.46418,0.67789 2.45618,1.84226 -0.002,0.3055 -0.24962,1.25294 -0.55036,2.10582 -0.60896,1.72698 -0.67154,2.21071 -0.28525,2.21071 0.14397,0 1.80826,-0.68645 3.69848,-1.52548 l 3.437,-1.52549 1.93115,-3.84111 c 1.62578,-3.23314 2.09302,-4.00308 2.95227,-4.8643 1.20841,-1.21116 1.92341,-1.44296 2.93057,-0.95033 1.19855,0.58622 1.52406,1.86659 1.11518,4.38577 -0.1041,0.6415 -0.11569,1.30896 -0.0274,1.54771 0.14425,0.38992 0.39024,0.19344 3.45509,-2.75952 l 3.29954,-3.17913 0.69557,-4.51497 c 0.38249,-2.48311 0.85658,-5.01279 1.05368,-5.62188 0.71421,-2.2071 2.30677,-3.27304 3.3848,-2.26601 0.68869,0.64333 0.92394,1.19511 1.43816,3.37137 0.25482,1.07844 0.54059,2.09839 0.63459,2.26601 0.1327,0.23664 0.62715,-0.62743 2.21278,-3.86436 l 2.04225,-4.16874 -0.42064,-2.89492 c -0.26497,-1.82417 -0.42227,-3.77676 -0.42427,-5.27978 -0.003,-2.11769 0.0421,-2.47068 0.40411,-3.14761 0.47458,-0.88749 1.22058,-1.53106 1.77302,-1.53014 0.6051,0.001 1.52477,0.65131 2.0004,1.41439 0.23814,0.38206 0.79378,1.37563 1.23455,2.20813 0.44078,0.8325 0.85702,1.51412 0.92552,1.51412 0.0685,0 0.17918,-0.43348 0.24598,-0.96325 0.0668,-0.52977 0.37061,-2.63975 0.6749,-4.6886 l 0.55293,-3.72535 -0.39119,-0.63304 c -0.2153,-0.34836 -0.47968,-0.57881 -0.58756,-0.51211 -0.1153,0.0713 -0.14296,0.0345 -0.0667,-0.0889 0.0714,-0.1155 -0.45433,-1.18652 -1.16841,-2.38073 -2.19491,-3.67076 -2.87055,-5.77656 -2.40657,-7.49773 0.23062,-0.85549 1.09701,-1.71239 1.72703,-1.70739 0.58506,0.004 1.55921,0.65358 3.23029,2.15284 0.81543,0.73159 1.5534,1.33015 1.6397,1.33015 0.18348,0 0.20764,0.14902 -0.82321,-5.04569 l -0.80098,-4.03645 -1.14825,-1.00148 c -2.20338,-1.92224 -5.48446,-5.24305 -6.04873,-6.12211 -1.32996,-2.07193 -0.6508,-4.342889 1.29863,-4.342889 0.2799,0 1.3702,0.321024 2.42259,0.713651 3.08708,1.151708 2.89214,1.160538 2.18126,-0.09715 -0.79934,-1.414207 -2.27507,-3.852553 -3.38325,-5.590357 -0.70215,-1.101047 -1.02904,-1.445014 -1.54771,-1.626774 -1.51464,-0.530767 -5.31318,-2.463249 -6.88485,-3.502628 -1.96544,-1.299763 -2.67116,-2.197804 -2.67116,-3.399793 0,-0.651604 0.0996,-0.857519 0.64854,-1.339453 0.76745,-0.673822 0.82948,-0.681454 4.02973,-0.488859 l 2.01848,0.121439 -0.91726,-0.865063 c -0.50455,-0.47587 -2.03235,-1.960117 -3.39462,-3.298507 l -2.47685,-2.433443 -2.66031,-0.207222 c -1.46315,-0.113797 -3.23633,-0.28688 -3.94032,-0.38499 -3.6285,-0.505701 -5.60018,-1.807082 -5.60018,-3.695898 0,-1.183357 0.7275,-1.754767 2.85926,-2.246891 2.87315,-0.663285 3.05872,-0.762391 2.14044,-1.141533 -0.2775,-0.114572 -2.27576,-0.947846 -4.44056,-1.851566 -3.09288,-1.291165 -4.03614,-1.612864 -4.40335,-1.502751 -5.15406,1.545531 -6.33761,1.830896 -7.59178,1.830896 -2.10639,0 -3.48834,-0.889315 -3.71347,-2.389518 -0.13786,-0.918706 0.35208,-1.582708 2.3058,-3.123841 0.91876,-0.724738 1.63709,-1.350836 1.59629,-1.391646 -0.0408,-0.04081 -1.9196,-0.161166 -4.17546,-0.267167 -1.52588,-0.0717 -2.59971,-0.106257 -3.36207,-0.103353 z M 139.8576,50.88376 h 1.46296 1.46244 v 2.752287 2.75177 h 2.75229 2.75229 v 1.476912 1.476913 l -2.75281,-0.05478 -2.75228,-0.05529 5.1e-4,2.889748 v 2.88974 h -1.46761 -1.46812 l 5.1e-4,-2.88974 5.2e-4,-2.889231 -2.64635,0.05478 -2.64635,0.05529 -0.0605,-1.472778 -0.0599,-1.472778 2.66031,-0.05013 2.6603,-0.05013 0.0506,-2.706294 z m 10.25467,18.35547 h 3.16363 c 2.6625,0 3.20147,0.0459 3.40445,0.29042 0.17473,0.2106 0.18802,0.37481 0.0486,0.59635 -0.16265,0.2584 -0.65721,0.31989 -3.19618,0.39739 l -3.00344,0.092 -1.52135,3.38533 c -0.83675,1.86214 -1.62315,3.4507 -1.74718,3.5295 -0.40924,0.25996 -0.85527,0.1549 -1.1219,-0.26407 -0.21116,-0.33181 -0.66301,-4.13665 -0.66301,-5.58261 0,-0.20327 -0.0791,-0.21292 -0.38809,-0.0475 -0.3087,0.1652 -0.44766,0.14818 -0.67747,-0.0816 -0.26318,-0.26318 -0.239,-0.3509 0.26923,-0.98082 0.68585,-0.85006 1.43828,-1.01904 1.70532,-0.38292 0.0981,0.23367 0.2633,1.57271 0.3669,2.97605 0.1036,1.40334 0.21697,2.58012 0.25167,2.61482 0.0347,0.0347 0.46097,-0.82456 0.94723,-1.90944 0.48627,-1.08488 1.17151,-2.57105 1.5229,-3.30264 z m 1.43764,2.77399 c 0.23752,-0.0201 0.52081,0.23874 0.86558,0.78238 l 0.51005,0.80409 0.85938,-0.81184 c 0.73358,-0.69316 0.91357,-0.78316 1.22886,-0.61443 0.57009,0.30511 0.44541,0.7367 -0.48472,1.68103 -0.84023,0.85306 -0.84896,0.87442 -0.55036,1.33015 0.38264,0.5837 0.38411,0.91489 0.005,1.22938 -0.25936,0.21526 -0.36345,0.17014 -0.79065,-0.34158 l -0.49196,-0.58911 -0.80718,0.82269 c -0.75457,0.76886 -1.23634,0.9899 -1.52601,0.70022 -0.29015,-0.29014 -0.0637,-0.75131 0.79685,-1.62264 l 0.91881,-0.93018 -0.55346,-0.87333 c -0.443,-0.69856 -0.51554,-0.94451 -0.36225,-1.23093 0.11326,-0.21164 0.23938,-0.32386 0.38189,-0.3359 z" /><path
             style="fill:#000000;stroke:#000000;stroke-width:0.183471;stroke-opacity:1"
             d="m 86.353361,92.66922 c 2.55698,-4.88723 3.21255,-6.15067 10.01969,-19.31029 2.34889,-4.5409 4.774079,-9.20564 5.389319,-10.36609 0.61523,-1.16045 1.36452,-2.581333 1.66508,-3.157503 0.49652,-0.95182 0.58864,-1.03568 1.00772,-0.91735 0.85093,0.24025 4.08334,0.0977 4.93903,-0.21778 0.44461,-0.16393 0.82663,-0.27654 0.84894,-0.25023 0.0943,0.11115 0.81955,1.60049 0.81955,1.68293 0,0.0496 -0.71883,0.42707 -1.59739,0.838783 -1.82815,0.8567 -2.16002,1.11543 -2.64196,2.05971 -0.48653,0.95327 -0.44758,1.83243 0.11057,2.49576 0.70549,0.83842 1.7559,1.17823 4.07105,1.31698 1.8063,0.10826 2.19738,0.19448 3.26403,0.71959 1.53772,0.75702 2.21259,1.66183 2.06427,2.76761 -0.0542,0.40376 -0.47785,1.38125 -0.94155,2.17218 -0.8897,1.51759 -0.98015,1.83751 -0.62105,2.19661 0.17371,0.17372 -1.19464,1.63868 -6.28933,6.73337 -6.04997,6.04998 -6.55646,6.51148 -7.14804,6.51314 -1.399709,0.004 -2.278569,0.67726 -6.674469,5.11354 l -4.20307,4.24168 h -3.25309 -3.25308 z"
             id="path817" /><path
             style="fill:none;stroke:#000000;stroke-width:0.183471;stroke-opacity:1"
             d="m 57.044161,70.29726 c -0.0586,-0.14636 -0.10204,-0.10288 -0.11084,0.11085 -0.008,0.19341 0.0354,0.30177 0.0964,0.24081 0.061,-0.061 0.0675,-0.21921 0.0145,-0.35166 z"
             id="path815" /><path
             style="fill:#000000;fill-opacity:1;stroke:#000000;stroke-width:0.183471;stroke-opacity:1"
             d="m 54.831621,103.48381 c -1.87238,-1.31606 -2.49234,-1.8636 -2.98876,-2.63962 -1.12714,-1.762 -3.9163,-6.72029 -3.82928,-6.80731 0.0468,-0.0468 0.81049,0.14515 1.6972,0.42645 0.88671,0.28129 2.05227,0.51903 2.59014,0.5283 0.88254,0.0152 1.03019,-0.0416 1.51363,-0.58233 0.41428,-0.46337 0.5353,-0.77525 0.53397,-1.37603 -0.003,-1.4649 -1.06358,-2.77152 -5.69326,-7.01566 l -1.19995,-1.10002 -0.79828,-4.36209 c -0.43906,-2.39915 -0.74947,-4.4109 -0.68981,-4.47056 0.0597,-0.0597 0.67608,0.30436 1.36982,0.80894 1.6116,1.17218 2.27437,1.5105 2.9591,1.5105 1.4149,0 2.15287,-1.0156 1.9769,-2.72059 -0.10995,-1.06526 -1.09142,-3.29416 -2.62148,-5.95334 -0.464962,-0.838468 -0.85345,-1.52448 -1.26471,-2.08579 -0.29759,-0.45417 -0.29872,-0.71772 -0.0195,-4.53932 0.16301,-2.23143 0.29615,-4.284203 0.29586,-4.561703 -3.7e-4,-0.2775 0.064,-0.50454 0.14289,-0.50454 0.0789,0 0.62855,0.57203 1.2215,1.27119 0.59295,0.69915 1.31746,1.448163 1.61003,1.664473 1.10649,0.81806 2.65662,0.62825 3.18305,-0.389753 0.56482,-1.09223 0.5214,-1.94163 -0.26153,-5.11611 -1.18695,-4.81262 -1.28746,-3.90394 0.99394,-8.985921 1.08983,-2.427649 2.04823,-4.347176 2.12979,-4.26562 0.0816,0.08156 0.36348,0.764509 0.62649,1.517673 0.833,2.385382 1.3701,2.945496 2.9501,3.076521 0.9102,0.07548 1.012,0.04058 1.60172,-0.549142 0.34636,-0.34636 0.71628,-0.955006 0.82205,-1.352546 0.10577,-0.397541 0.32432,-2.49788 0.48566,-4.667421 0.23083,-3.103838 0.35954,-4.029881 0.60388,-4.344627 0.1708,-0.220005 1.30128,-1.488086 2.51218,-2.817963 1.21091,-1.329874 2.46229,-2.718546 2.78084,-3.085935 0.31855,-0.367391 0.6356,-0.612375 0.70456,-0.544414 0.069,0.06796 0.17016,0.976143 0.2249,2.018178 0.11264,2.144286 0.20761,2.413955 1.02578,2.91283 1.18937,0.72521 3.01027,0.29467 4.0784,-0.964307 0.61073,-0.719864 1.75487,-3.12591 2.83865,-5.9695 l 0.78616,-2.062702 3.13433,-1.691896 c 1.72389,-0.930541 3.27412,-1.691893 3.44497,-1.691893 0.17085,0 0.27271,-0.06135 0.22637,-0.136342 -0.071,-0.114882 0.84212,-0.702381 1.09168,-0.702381 0.12583,0 -0.21857,1.439276 -0.6366,2.660325 -0.49087,1.433834 -0.50986,2.539762 -0.0523,3.045373 0.52203,0.576837 1.25732,0.899733 2.03855,0.895218 1.58514,-0.0092 2.92633,-1.092642 6.18046,-4.992875 1.46342,-1.753975 1.92094,-2.185626 2.46811,-2.328527 5.443309,-1.421611 7.968059,-2.044611 8.094479,-1.997373 0.0847,0.03164 -0.56007,0.861883 -1.43277,1.844977 -2.16646,2.440503 -2.18665,2.517566 -2.31967,8.853857 -0.0638,3.039238 -0.036,5.05599 0.0719,5.218365 0.13641,0.205219 0.008,0.339815 -0.57159,0.599323 -3.131929,1.402208 -5.998889,5.033345 -6.850509,8.676496 -0.42824,1.831944 -0.29173,5.247393 0.27498,6.880149 l 0.41392,1.19256 -11.23922,22.408433 c -6.18158,12.32463 -11.37407,22.58719 -11.53889,22.80569 -0.25621,0.33967 -0.54441,0.41312 -1.98813,0.50665 l -1.68848,0.10939 -0.0466,-23.28202 -0.0466,-23.282023 h -5.59585 -5.59586 l -0.0984,3.39421 c -0.0541,1.86681 -0.11773,14.039513 -0.14141,27.050443 -0.0237,13.01094 -0.062,23.67152 -0.0851,23.6902 -0.0231,0.0187 -1.10515,-0.71328 -2.40448,-1.62655 z"
             id="path813"
             sodipodi:nodetypes="cssssscscsssssccccsssssscsssssssscsssscsssssscsssssccsscssscccccccscc" /><path
             style="fill:#000000;stroke:#000000;stroke-width:0.183471;stroke-opacity:1"
             d="m 98.648801,107.9528 c 0.72931,-0.73927 3.311679,-3.46542 5.009329,-5.18009 l 2.92277,-2.95053 2.36848,-0.0395 c 1.30266,-0.0217 2.47168,-0.002 2.59781,0.0438 0.17587,0.0638 0.22934,1.25509 0.22934,5.10904 v 5.02582 h -1.2843 -1.28429 v -2.01818 c 0,-1.77355 -0.0445,-2.06266 -0.36694,-2.38512 -0.45791,-0.45791 -1.13257,-0.47175 -1.53107,-0.0314 -0.2444,0.27006 -0.30364,0.73541 -0.30364,2.38512 v 2.0496 h -1.8347 -1.83471 v -2.08148 c 0,-2.29097 -0.17024,-2.68876 -1.15073,-2.68876 -0.8355,0 -1.05091,0.57247 -1.05091,2.79288 v 1.97736 h -2.244389 -2.24439 z"
             id="path809"
             sodipodi:nodetypes="cccscscccsssscccssscccc" /><path
             style="fill:#000000;stroke:#000000;stroke-width:0.183471;stroke-opacity:1"
             d="M 59.670891,81.70685 V 53.268887 l 3.44008,-3.6e-4 3.44007,-3.7e-4 -0.0568,2.10303 -0.0569,2.10303 -1.49622,0.0531 c -1.41734,0.0503 -1.51108,0.0797 -1.77786,0.55765 -0.25319,0.4536 -0.25319,0.5555 0,1.00909 0.26707,0.47846 0.35957,0.5073 1.78884,0.55783 l 1.50722,0.0533 v 1.919023 1.91903 h -1.43933 c -1.58907,1e-5 -2.04662,0.25324 -2.04662,1.13271 0,0.80637 0.51058,1.06895 2.07849,1.06895 h 1.40746 v 1.92644 1.92644 h -1.33521 c -1.63907,0 -2.15074,0.28372 -2.15074,1.19256 0,0.90885 0.51167,1.19256 2.15074,1.19256 h 1.33521 v 1.92644 1.92645 h -1.45467 c -1.6321,0 -2.03128,0.21633 -2.03128,1.10082 0,0.88449 0.39918,1.10082 2.03128,1.10082 h 1.45467 v 2.01818 2.01818 h -1.52281 c -1.70191,0 -1.96314,0.13741 -1.96314,1.03268 0,0.95532 0.37125,1.16897 2.03128,1.16897 h 1.45467 v 2.00373 2.00372 l -1.43957,-0.0314 c -1.66755,-0.0364 -2.04638,0.1633 -2.04638,1.07876 0,0.97014 0.36579,1.1832 2.03128,1.1832 h 1.45467 v 1.92644 1.92645 h -1.3881 c -0.76345,0 -1.53829,0.0804 -1.72186,0.17863 -0.64919,0.34743 -0.61028,1.60147 0.0643,2.07213 0.11103,0.0775 0.85662,0.12678 1.65686,0.10959 l 1.45499,-0.0313 -0.0465,1.14051 c -0.0755,1.84959 0.0948,1.98861 2.52762,2.06399 1.10543,0.0342 2.05649,0.1091 2.11346,0.16632 0.057,0.0572 -0.43391,2.03872 -1.09083,4.4033 -0.65692,2.36459 -1.27798,4.60885 -1.38013,4.98726 l -0.18572,0.68802 h -4.39623 -4.39622 z"
             id="path801" /><path
             id="path793"
             style="fill:#000000;stroke:#000000;stroke-width:0.183471;stroke-opacity:1"
             d="m 107.2813,22.812605 c -1.5893,0 -1.9469,0.05533 -2.33578,0.361218 l -0.4594,0.361219 -0.1354,5.064807 c -0.1333,4.989753 -0.12949,5.07046 0.25115,5.475635 0.29925,0.31858 0.38654,0.646608 0.38654,1.454691 v 1.04283 h -0.59634 c -0.75199,1.81e-4 -2.69278,0.90966 -3.92586,1.839681 -1.214059,0.915673 -2.618779,3.014339 -3.195159,4.774386 -0.38157,1.165069 -0.44615,1.705358 -0.43615,3.660242 0.01,2.033124 0.0678,2.4433 0.51005,3.615283 l 0.4992,1.3224 -11.99876,23.996983 -11.99926,23.99699 -1.8588,6.11539 c -1.02235,3.36351 -1.85881,6.23225 -1.85881,6.37532 0,0.14306 0.0744,0.26045 0.16485,0.26045 0.0905,0 2.10287,-2.41502 4.47208,-5.3666 l 4.30775,-5.3666 3.2582,-6.32984 c 12.15801,-23.61885 20.091559,-38.773053 20.540859,-39.235853 0.39158,-0.40335 0.44805,-0.412934 0.85473,-0.147795 1.14345,0.7455 4.20032,0.709649 6.29316,-0.07338 0.79025,-0.29567 1.11047,-0.342909 1.26917,-0.187069 0.11672,0.11461 0.63117,0.969674 1.1436,1.900143 0.51243,0.930469 1.01798,1.674646 1.12344,1.653646 1.40244,-0.27878 2.86818,-0.418096 4.41214,-0.419096 1.03431,-7.6e-4 1.88102,-0.0465 1.88102,-0.101803 0,-0.05532 -0.74059,-1.668899 -1.64538,-3.585828 -0.9048,-1.916928 -1.66123,-3.58515 -1.68103,-3.70675 -0.0198,-0.12161 0.13739,-0.608021 0.34933,-1.081071 0.79875,-1.782823 1.01654,-4.841573 0.47904,-6.725688 -0.46455,-1.628413 -1.50805,-3.450913 -2.62464,-4.584216 -1.17864,-1.196267 -3.17884,-2.321935 -4.46381,-2.511991 l -0.87179,-0.129191 v -1.171505 c 0,-1.049413 0.0383,-1.171505 0.36691,-1.171505 0.35894,0 0.36742,-0.122672 0.36742,-5.307686 v -5.30717 l -0.4837,-0.380338 c -0.4175,-0.328417 -0.73953,-0.380339 -2.36057,-0.380339 z m -0.23617,18.011304 c 0.14809,-1.1e-4 0.29859,0.0045 0.45166,0.01395 3.23752,0.20017 5.384,2.509452 5.379,5.787244 -0.003,2.016033 -1.10461,3.892346 -2.90422,4.946985 -1.14607,0.671639 -3.68478,0.789911 -5.06171,0.236161 -1.15519,-0.464579 -2.19141,-1.478163 -2.81946,-2.759004 -0.41209,-0.840415 -0.49455,-1.254432 -0.49455,-2.476852 0,-1.246543 0.0795,-1.630807 0.52969,-2.549198 1.03916,-2.119768 2.6983,-3.197636 4.91959,-3.199288 z" /><path
             style="fill:#000000;stroke:#000000;stroke-width:0.183471;stroke-opacity:1"
             d="m 142.02776,112.66753 c -0.83068,-1.23614 -2.42845,-3.56851 -3.55058,-5.18305 -1.12212,-1.61454 -2.68977,-4.13268 -3.48365,-5.59586 -2.52455,-4.65294 -7.74899,-14.01493 -9.88018,-17.70492 l -1.37755,-2.38512 0.48773,-0.52714 c 0.97312,-1.05176 2.34616,-1.26665 3.05918,-0.47878 0.33154,0.36635 0.31338,0.71858 -0.10899,2.11415 -0.2953,0.97569 -0.11426,1.84476 0.61403,2.94762 0.78142,1.18332 3.00189,3.51366 3.68419,3.86649 0.69005,0.35684 2.41388,0.34374 2.97298,-0.0226 0.48051,-0.31483 0.25294,-0.72525 4.06161,7.32491 1.8443,3.89819 1.73795,3.56055 5.15738,16.37259 0.3367,1.26156 0.33951,1.51922 0.0165,1.51922 -0.0783,0 -0.82199,-1.01138 -1.65268,-2.24751 z"
             id="path791" /><path
             style="fill:#000000;stroke:#000000;stroke-width:0.183471;stroke-opacity:1"
             d="m 84.107161,117.1759 c -0.33413,-0.16465 -1.61383,-1.36268 -2.8438,-2.66229 -1.72414,-1.82175 -2.30257,-2.5611 -2.52565,-3.22826 l -0.28933,-0.86534 -1.30135,-0.0917 c -0.71574,-0.0505 -1.35204,-0.1427 -1.41399,-0.20499 -0.12547,-0.12614 0.56687,-1.05118 3.34978,-4.47563 1.27085,-1.56381 2.16784,-2.88463 2.7367,-4.0298 l 0.84623,-1.70353 0.93271,-0.11208 c 0.51299,-0.0617 2.25156,-0.1128 3.86349,-0.11368 l 2.93078,-0.002 4.49978,-4.48466 c 4.6011,-4.58562 5.421019,-5.22591 6.703999,-5.23526 0.48158,-0.004 1.50608,-0.95713 7.93511,-7.38616 6.34921,-6.34921 7.38213,-7.45708 7.38213,-7.91779 0,-0.29461 0.19449,-0.79114 0.4322,-1.10339 1.80068,-2.3653 1.84685,-5.03871 0.11408,-6.60417 -1.54595,-1.39667 -3.00071,-1.88401 -6.29932,-2.11023 -2.58427,-0.17723 -3.0902,-0.38403 -2.75844,-1.12752 0.20788,-0.46589 2.12364,-1.32841 4.10818,-1.84961 1.82179,-0.47846 5.57792,-0.65633 7.26858,-0.3442 1.77564,0.32781 3.90785,1.13384 5.10972,1.93159 1.21741,0.80808 6.71502,6.10366 7.42411,7.15129 0.54271,0.80182 0.80811,1.42523 1.10949,2.60612 0.37071,1.4525 1.84668,2.70093 3.48194,2.94515 0.84924,0.12682 1.00406,0.23858 2.22227,1.60409 0.72018,0.80727 1.4343,1.70923 1.58692,2.00436 l 0.2775,0.5366 -3.66243,3.63736 c -4.61165,4.58008 -4.46,4.544 -6.82727,1.62432 -1.03726,-1.2793 -1.34888,-2.03844 -0.9404,-2.29089 0.0941,-0.0582 0.26394,-0.55284 0.37738,-1.09926 0.18386,-0.88564 0.16345,-1.09297 -0.18802,-1.91 -0.61345,-1.42598 -1.97076,-2.22729 -3.77273,-2.22729 -1.08222,0 -2.30381,0.50186 -3.33626,1.37061 -0.33805,0.28444 -0.60926,0.39841 -0.67913,0.28537 -0.064,-0.10352 -0.20554,-0.18821 -0.31458,-0.18821 -0.10904,0 -3.44587,3.28183 -7.41518,7.29296 -5.69963,5.75968 -7.21788,7.39216 -7.22147,7.76482 -0.003,0.25952 -0.13691,0.86031 -0.29868,1.33507 -0.2506,0.73547 -1.12233,1.70393 -5.89085,6.54449 -5.289749,4.08902 -9.854369,11.25296 -14.474309,14.68578 -0.69776,0.43124 -1.42974,0.44677 -2.23986,0.0475 z"
             id="path787"
             sodipodi:nodetypes="cssccsssccccscsssssssssssssscsssssssssscscccc" /><path
             style="fill:#000000;stroke:#000000;stroke-width:0.183471;stroke-opacity:1"
             d="m 105.53857,118.64673 c -4.04258,-0.39333 -5.768929,-0.6917 -8.531389,-1.4745 -1.37335,-0.38916 -4.77524,-1.62286 -5.02429,-1.82207 -0.0388,-0.031 0.52721,-0.71959 1.25786,-1.53008 l 1.32845,-1.47363 8.557819,-0.004 c 7.9277,-0.004 8.61185,-0.029 9.2917,-0.34274 0.40363,-0.18629 0.94028,-0.56266 1.19256,-0.83637 l 0.45867,-0.49766 v -5.83702 c 0,-5.57733 -0.0163,-5.85535 -0.36694,-6.24913 -0.69153,-0.77667 -1.69433,-1.08579 -3.53652,-1.09015 l -1.70182,-0.004 0.28155,-0.54445 c 0.15485,-0.29944 0.34274,-0.83671 0.41752,-1.19393 0.11138,-0.53201 1.24442,-1.77949 6.26452,-6.89728 4.96111,-5.05765 6.17161,-6.20199 6.35463,-6.00729 0.12435,0.13227 2.3946,4.12091 5.04499,8.86363 2.6504,4.74271 5.46694,9.77663 6.25898,11.18648 0.79204,1.40984 1.44008,2.66419 1.44008,2.78744 0,0.12324 0.1662,0.50578 0.36934,0.85008 l 0.36935,0.62599 -1.43459,1.3706 c -4.01523,3.83612 -9.84554,7.12029 -15.35779,8.65091 -4.39174,1.21949 -9.51745,1.8017 -12.93468,1.46922 z"
             id="path785" /><path
             style="fill:#000000;fill-opacity:1;stroke:#000000;stroke-width:0.183471;stroke-opacity:1"
             d="m 105.39184,49.45443 c -0.99881,-0.54855 -1.31844,-1.218301 -1.31983,-2.765506 -0.002,-2.198479 0.81356,-3.223943 2.74593,-3.452804 2.00533,-0.237503 3.45139,0.89299 3.6136,2.825032 -0.0927,1.265209 -0.31182,2.60866 -1.18263,3.262505 -0.71037,0.52087 -3.00511,0.59867 -3.85707,0.130773 z"
             id="path799"
             sodipodi:nodetypes="scsccs" /></g><text
           xml:space="preserve"
           style="font-size:22.5778px;fill:#000000;fill-opacity:1;stroke:#000000;stroke-width:0.264583;stroke-opacity:1"
           x="51.858288"
           y="16.237608"
           id="text2258"><tspan
             sodipodi:role="line"
             id="tspan2256"
             style="font-style:normal;font-variant:normal;font-weight:bold;font-stretch:normal;font-size:22.5778px;font-family:'Courier New';-inkscape-font-specification:'Courier New Bold';stroke-width:0.264583"
             x="51.858288"
             y="16.237608">Fontaine</tspan></text></g><text
         xml:space="preserve"
         style="font-size:16.9333px;fill:#000000;fill-opacity:1;stroke:#000000;stroke-width:0.264583;stroke-opacity:1"
         x="48.585228"
         y="151.54146"
         id="text3542"><tspan
           sodipodi:role="line"
           id="tspan3540"
           style="font-style:normal;font-variant:normal;font-weight:bold;font-stretch:normal;font-size:16.9333px;font-family:'Courier New';-inkscape-font-specification:'Courier New Bold';stroke-width:0.264583"
           x="48.585228"
           y="151.54146">Charpente &amp; Création</tspan></text></g></g></svg>
